<svg width="1440" height="1024" viewBox="0 0 1440 1024" fill="none" xmlns="http://www.w3.org/2000/svg">
<g clip-path="url(#clip0_1584_1917)">
<rect width="1440" height="1024" fill="#2E2E2E"/>
<path d="M0 0H1440V70H0V0Z" fill="#2E2E2E"/>
<path d="M1440 70V69.5H0V70V70.5H1440V70Z" fill="#FF3C38"/>
<g filter="url(#filter0_d_1584_1917)">
<path d="M168.644 15V52.1903C168.644 53.2947 169.539 54.1901 170.643 54.1903L177.691 54.1912C178.244 54.1913 178.691 53.7436 178.691 53.1912V41.8757C178.691 41.0606 179.614 40.5879 180.276 41.0641L188.155 46.7372C188.504 46.9885 188.975 46.9885 189.324 46.7372L197.203 41.0641C197.864 40.5879 198.787 41.0606 198.787 41.8757V47.0574V53.1912C198.787 53.7436 199.235 54.1913 199.787 54.1912L207.835 54.1901C208.387 54.1901 208.835 53.7382 208.835 53.186V15.0042C208.835 14.4519 208.387 14 207.835 14H201.228C199.688 14 198.233 14.7101 197.286 15.9247L188.739 26.8809L180.193 15.9247C179.245 14.7101 177.791 14 176.25 14H169.644C169.091 14 168.644 14.4477 168.644 15Z" fill="#D1D5DB"/>
<path d="M176.25 13.75C177.867 13.75 179.395 14.4954 180.39 15.7705L188.739 26.4746L197.089 15.7705C198.084 14.4954 199.611 13.75 201.229 13.75H207.835C208.527 13.75 209.085 14.315 209.085 15.0039V53.1855C209.085 53.8745 208.527 54.4403 207.835 54.4404L199.787 54.4414C199.097 54.4414 198.537 53.8817 198.537 53.1914V41.876C198.537 41.2647 197.845 40.9095 197.349 41.2666L189.47 46.9404C189.034 47.2544 188.445 47.2544 188.009 46.9404L180.13 41.2666C179.634 40.9094 178.941 41.2647 178.941 41.876V53.1914C178.941 53.8817 178.382 54.4414 177.691 54.4414L170.644 54.4404C169.401 54.4403 168.394 53.4329 168.394 52.1904V15C168.394 14.3096 168.953 13.75 169.644 13.75H176.25Z" stroke="#4B5563" stroke-width="0.5"/>
</g>
<g filter="url(#filter1_n_1584_1917)">
<path d="M165.24 33.5168V31.6515C164.345 31.6515 163.62 30.926 163.62 30.0309V25.0944C163.62 24.1994 164.345 23.4738 165.24 23.4738V22.4163C165.24 19.6549 167.479 17.4163 170.24 17.4163H188.739H207.238C210 17.4163 212.238 19.6549 212.238 22.4163V23.4738C213.133 23.4738 213.859 24.1994 213.859 25.0944V30.0309C213.859 30.926 213.133 31.6515 212.238 31.6515V33.5168C212.238 36.2782 210 38.5168 207.238 38.5168H197.832C195.615 38.5168 193.46 37.7798 191.707 36.4219L190.36 35.3778H188.739H187.119L185.771 36.4219C184.018 37.7798 181.864 38.5168 179.647 38.5168H170.24C167.479 38.5168 165.24 36.2782 165.24 33.5168Z" fill="#2E2E2E"/>
<path d="M165.24 31.6515V33.5168C165.24 36.2782 167.479 38.5168 170.24 38.5168H179.647C181.864 38.5168 184.018 37.7798 185.771 36.4219L187.119 35.3778H188.739H190.36L191.707 36.4219C193.46 37.7798 195.615 38.5168 197.832 38.5168H207.238C210 38.5168 212.238 36.2782 212.238 33.5168V31.6515M165.24 31.6515V23.4738M165.24 31.6515C164.345 31.6515 163.62 30.9259 163.62 30.0309V25.0944C163.62 24.1994 164.345 23.4738 165.24 23.4738M212.238 31.6515V23.4738M212.238 31.6515C213.133 31.6515 213.859 30.926 213.859 30.0309V25.0944C213.859 24.1994 213.133 23.4738 212.238 23.4738M212.238 23.4738V22.4163C212.238 19.6548 210 17.4163 207.238 17.4163H188.739H170.24C167.479 17.4163 165.24 19.6549 165.24 22.4163V23.4738" stroke="#FF3C38" stroke-width="2"/>
</g>
<path d="M204.816 56.0287H208.945C210.05 56.0287 210.945 55.1333 210.945 54.0287V50" stroke="#FF3C38" stroke-linecap="round"/>
<path d="M207.505 18.9999H169.973C168.381 18.9999 167.067 20.2433 166.978 21.8327L166.634 27.9999L166.978 34.1671C167.067 35.7566 168.381 36.9999 169.973 36.9999H180.801C181.391 36.9999 181.968 36.826 182.459 36.4997L186.227 33.9999H191.251L195.019 36.4997C195.51 36.826 196.087 36.9999 196.677 36.9999H207.505C209.097 36.9999 210.411 35.7566 210.5 34.1671L210.844 27.9999L210.5 21.8327C210.411 20.2433 209.097 18.9999 207.505 18.9999Z" stroke="#FF3C38" stroke-opacity="0.3" stroke-width="0.5"/>
<g filter="url(#filter2_d_1584_1917)">
<path d="M168.644 25V22C168.644 21.4477 169.091 21 169.644 21H172.663" stroke="#D1D5DB" stroke-linecap="round"/>
</g>
<rect width="805" height="30" transform="translate(317.859 20)" fill="#2E2E2E"/>
<path d="M318.867 44V26.72H322.011V44H318.867ZM324.856 44V30.08H335.68C336.288 30.08 336.84 30.232 337.336 30.536C337.848 30.84 338.248 31.24 338.536 31.736C338.84 32.232 338.992 32.784 338.992 33.392V44H335.848V33.512C335.848 33.432 335.816 33.368 335.752 33.32C335.704 33.256 335.64 33.224 335.56 33.224H328.288C328.208 33.224 328.136 33.256 328.072 33.32C328.024 33.368 328 33.432 328 33.512V44H324.856ZM341.759 44V30.08H344.903V44H341.759ZM341.759 28.688V25.52H344.903V28.688H341.759ZM350.677 44C350.069 44 349.517 43.848 349.021 43.544C348.525 43.24 348.125 42.84 347.821 42.344C347.517 41.848 347.365 41.296 347.365 40.688V33.392C347.365 32.784 347.517 32.232 347.821 31.736C348.125 31.24 348.525 30.84 349.021 30.536C349.517 30.232 350.069 30.08 350.677 30.08H361.477V33.224H350.797C350.717 33.224 350.645 33.256 350.581 33.32C350.533 33.368 350.509 33.432 350.509 33.512V40.568C350.509 40.648 350.533 40.72 350.581 40.784C350.645 40.832 350.717 40.856 350.797 40.856H361.501V44H350.677ZM364.317 44V30.08H367.461V44H364.317ZM364.317 28.688V25.52H367.461V28.688H364.317ZM373.165 44C372.557 44 372.005 43.848 371.509 43.544C371.013 43.24 370.613 42.84 370.309 42.344C370.005 41.848 369.853 41.296 369.853 40.688V33.392C369.853 32.784 370.005 32.232 370.309 31.736C370.613 31.24 371.013 30.84 371.509 30.536C372.005 30.232 372.557 30.08 373.165 30.08H380.677C381.285 30.08 381.837 30.232 382.333 30.536C382.845 30.84 383.245 31.24 383.533 31.736C383.837 32.232 383.989 32.784 383.989 33.392V40.688C383.989 41.296 383.837 41.848 383.533 42.344C383.245 42.84 382.853 43.24 382.357 43.544C381.861 43.848 381.301 44 380.677 44H373.165ZM373.285 40.856H380.557C380.637 40.856 380.701 40.832 380.749 40.784C380.813 40.72 380.845 40.648 380.845 40.568V33.512C380.845 33.432 380.813 33.368 380.749 33.32C380.701 33.256 380.637 33.224 380.557 33.224H373.285C373.205 33.224 373.133 33.256 373.069 33.32C373.021 33.368 372.997 33.432 372.997 33.512V40.568C372.997 40.648 373.021 40.72 373.069 40.784C373.133 40.832 373.205 40.856 373.285 40.856Z" fill="#D1D5DB"/>
<path d="M422.467 44C421.859 44 421.299 43.848 420.787 43.544C420.291 43.24 419.891 42.84 419.587 42.344C419.283 41.832 419.131 41.272 419.131 40.664V39.344H422.299V40.52C422.299 40.6 422.323 40.672 422.371 40.736C422.435 40.784 422.507 40.808 422.587 40.808H432.931C433.011 40.808 433.075 40.784 433.123 40.736C433.187 40.672 433.219 40.6 433.219 40.52V37.232C433.219 37.152 433.187 37.088 433.123 37.04C433.075 36.992 433.011 36.968 432.931 36.968H422.467C421.859 36.968 421.299 36.816 420.787 36.512C420.291 36.208 419.891 35.808 419.587 35.312C419.283 34.8 419.131 34.232 419.131 33.608V30.056C419.131 29.448 419.283 28.896 419.587 28.4C419.891 27.888 420.291 27.48 420.787 27.176C421.299 26.872 421.859 26.72 422.467 26.72H433.075C433.683 26.72 434.235 26.872 434.731 27.176C435.243 27.48 435.651 27.888 435.955 28.4C436.259 28.896 436.411 29.448 436.411 30.056V31.376H433.219V30.2C433.219 30.12 433.187 30.056 433.123 30.008C433.075 29.944 433.011 29.912 432.931 29.912H422.587C422.507 29.912 422.435 29.944 422.371 30.008C422.323 30.056 422.299 30.12 422.299 30.2V33.488C422.299 33.568 422.323 33.632 422.371 33.68C422.435 33.728 422.507 33.752 422.587 33.752H433.075C433.683 33.752 434.235 33.904 434.731 34.208C435.243 34.512 435.651 34.92 435.955 35.432C436.259 35.928 436.411 36.488 436.411 37.112V40.664C436.411 41.272 436.259 41.832 435.955 42.344C435.651 42.84 435.243 43.24 434.731 43.544C434.235 43.848 433.683 44 433.075 44H422.467ZM442.463 44C441.855 44 441.303 43.848 440.807 43.544C440.311 43.24 439.911 42.84 439.607 42.344C439.303 41.848 439.151 41.296 439.151 40.688V33.392C439.151 32.784 439.303 32.232 439.607 31.736C439.911 31.24 440.311 30.84 440.807 30.536C441.303 30.232 441.855 30.08 442.463 30.08H449.975C450.583 30.08 451.135 30.232 451.631 30.536C452.143 30.84 452.543 31.24 452.831 31.736C453.135 32.232 453.287 32.784 453.287 33.392V40.688C453.287 41.296 453.135 41.848 452.831 42.344C452.543 42.84 452.151 43.24 451.655 43.544C451.159 43.848 450.599 44 449.975 44H442.463ZM442.583 40.856H449.855C449.935 40.856 449.999 40.832 450.047 40.784C450.111 40.72 450.143 40.648 450.143 40.568V33.512C450.143 33.432 450.111 33.368 450.047 33.32C449.999 33.256 449.935 33.224 449.855 33.224H442.583C442.503 33.224 442.431 33.256 442.367 33.32C442.319 33.368 442.295 33.432 442.295 33.512V40.568C442.295 40.648 442.319 40.72 442.367 40.784C442.431 40.832 442.503 40.856 442.583 40.856ZM455.916 44V25.52H459.06V30.08H466.74C467.348 30.08 467.9 30.232 468.396 30.536C468.908 30.84 469.308 31.24 469.596 31.736C469.9 32.232 470.052 32.784 470.052 33.392V40.688C470.052 41.296 469.9 41.848 469.596 42.344C469.308 42.84 468.908 43.24 468.396 43.544C467.9 43.848 467.348 44 466.74 44H455.916ZM459.348 40.856H466.62C466.7 40.856 466.764 40.832 466.812 40.784C466.876 40.72 466.908 40.648 466.908 40.568V33.512C466.908 33.432 466.876 33.368 466.812 33.32C466.764 33.256 466.7 33.224 466.62 33.224H459.348C459.268 33.224 459.196 33.256 459.132 33.32C459.084 33.368 459.06 33.432 459.06 33.512V40.568C459.06 40.648 459.084 40.72 459.132 40.784C459.196 40.832 459.268 40.856 459.348 40.856ZM472.116 44V33.392C472.116 32.784 472.268 32.232 472.572 31.736C472.876 31.24 473.276 30.84 473.772 30.536C474.284 30.232 474.836 30.08 475.428 30.08H483.156V33.224H475.548C475.468 33.224 475.396 33.256 475.332 33.32C475.284 33.368 475.26 33.432 475.26 33.512V44H472.116ZM488.347 44C487.739 44 487.187 43.848 486.691 43.544C486.195 43.24 485.795 42.84 485.491 42.344C485.187 41.848 485.035 41.296 485.035 40.688V33.392C485.035 32.784 485.187 32.232 485.491 31.736C485.795 31.24 486.195 30.84 486.691 30.536C487.187 30.232 487.739 30.08 488.347 30.08H495.859C496.467 30.08 497.019 30.232 497.515 30.536C498.027 30.84 498.427 31.24 498.715 31.736C499.019 32.232 499.171 32.784 499.171 33.392V38.624H488.179V40.568C488.179 40.648 488.203 40.72 488.251 40.784C488.315 40.832 488.387 40.856 488.467 40.856H499.171V44H488.347ZM488.179 35.792H496.027V33.512C496.027 33.432 495.995 33.368 495.931 33.32C495.883 33.256 495.819 33.224 495.739 33.224H488.467C488.387 33.224 488.315 33.256 488.251 33.32C488.203 33.368 488.179 33.432 488.179 33.512V35.792ZM509.588 44V26.72H513.068L519.332 34.184L525.572 26.72H529.076V44H525.884V31.328L519.332 39.128L512.756 31.352V44H509.588ZM531.998 44V30.08H535.142V44H531.998ZM531.998 28.688V25.52H535.142V28.688H531.998Z" fill="#D1D5DB"/>
<path d="M570.251 44V26.72H586.163V29.912H573.443V33.752H583.667V36.968H573.443V40.808H586.163V44H570.251ZM588.578 44V43.16L593.69 36.92L588.578 30.92V30.08H591.986L595.73 34.496L599.474 30.08H602.882V30.92L597.77 36.92L602.882 43.16V44H599.498L595.73 39.392L591.986 44H588.578ZM605.627 49.52V30.08H616.451C617.059 30.08 617.611 30.232 618.107 30.536C618.619 30.84 619.019 31.24 619.307 31.736C619.611 32.232 619.763 32.784 619.763 33.392V40.688C619.763 41.296 619.611 41.848 619.307 42.344C619.019 42.84 618.619 43.24 618.107 43.544C617.611 43.848 617.059 44 616.451 44H608.771V49.52H605.627ZM609.059 40.856H616.331C616.411 40.856 616.475 40.832 616.523 40.784C616.587 40.72 616.619 40.648 616.619 40.568V33.512C616.619 33.432 616.587 33.368 616.523 33.32C616.475 33.256 616.411 33.224 616.331 33.224H609.059C608.979 33.224 608.907 33.256 608.843 33.32C608.795 33.368 608.771 33.432 608.771 33.512V40.568C608.771 40.648 608.795 40.72 608.843 40.784C608.907 40.832 608.979 40.856 609.059 40.856ZM625.045 44C624.437 44 623.885 43.848 623.389 43.544C622.893 43.24 622.493 42.84 622.189 42.344C621.885 41.848 621.733 41.296 621.733 40.688V33.392C621.733 32.784 621.885 32.232 622.189 31.736C622.493 31.24 622.893 30.84 623.389 30.536C623.885 30.232 624.437 30.08 625.045 30.08H632.557C633.165 30.08 633.717 30.232 634.213 30.536C634.725 30.84 635.125 31.24 635.413 31.736C635.717 32.232 635.869 32.784 635.869 33.392V38.624H624.877V40.568C624.877 40.648 624.901 40.72 624.949 40.784C625.013 40.832 625.085 40.856 625.165 40.856H635.869V44H625.045ZM624.877 35.792H632.725V33.512C632.725 33.432 632.693 33.368 632.629 33.32C632.581 33.256 632.517 33.224 632.437 33.224H625.165C625.085 33.224 625.013 33.256 624.949 33.32C624.901 33.368 624.877 33.432 624.877 33.512V35.792ZM638.473 44V33.392C638.473 32.784 638.625 32.232 638.929 31.736C639.233 31.24 639.633 30.84 640.129 30.536C640.641 30.232 641.193 30.08 641.785 30.08H649.513V33.224H641.905C641.825 33.224 641.753 33.256 641.689 33.32C641.641 33.368 641.617 33.432 641.617 33.512V44H638.473ZM651.58 44V30.08H654.724V44H651.58ZM651.58 28.688V25.52H654.724V28.688H651.58ZM660.593 44C659.985 44 659.433 43.848 658.937 43.544C658.441 43.24 658.041 42.84 657.737 42.344C657.433 41.848 657.281 41.296 657.281 40.688V33.392C657.281 32.784 657.433 32.232 657.737 31.736C658.041 31.24 658.441 30.84 658.937 30.536C659.433 30.232 659.985 30.08 660.593 30.08H668.105C668.713 30.08 669.265 30.232 669.761 30.536C670.273 30.84 670.673 31.24 670.961 31.736C671.265 32.232 671.417 32.784 671.417 33.392V38.624H660.425V40.568C660.425 40.648 660.449 40.72 660.497 40.784C660.561 40.832 660.633 40.856 660.713 40.856H671.417V44H660.593ZM660.425 35.792H668.273V33.512C668.273 33.432 668.241 33.368 668.177 33.32C668.129 33.256 668.065 33.224 667.985 33.224H660.713C660.633 33.224 660.561 33.256 660.497 33.32C660.449 33.368 660.425 33.432 660.425 33.512V35.792ZM674.21 44V30.08H685.034C685.642 30.08 686.194 30.232 686.69 30.536C687.202 30.84 687.602 31.24 687.89 31.736C688.194 32.232 688.346 32.784 688.346 33.392V44H685.202V33.512C685.202 33.432 685.17 33.368 685.106 33.32C685.058 33.256 684.994 33.224 684.914 33.224H677.642C677.562 33.224 677.49 33.256 677.426 33.32C677.378 33.368 677.354 33.432 677.354 33.512V44H674.21ZM693.838 44C693.23 44 692.678 43.848 692.182 43.544C691.686 43.24 691.286 42.84 690.982 42.344C690.678 41.848 690.526 41.296 690.526 40.688V33.392C690.526 32.784 690.678 32.232 690.982 31.736C691.286 31.24 691.686 30.84 692.182 30.536C692.678 30.232 693.23 30.08 693.838 30.08H704.638V33.224H693.958C693.878 33.224 693.806 33.256 693.742 33.32C693.694 33.368 693.67 33.432 693.67 33.512V40.568C693.67 40.648 693.694 40.72 693.742 40.784C693.806 40.832 693.878 40.856 693.958 40.856H704.662V44H693.838ZM707.478 44V30.08H710.622V44H707.478ZM707.478 28.688V25.52H710.622V28.688H707.478ZM716.092 44C715.484 44 714.924 43.848 714.412 43.544C713.916 43.24 713.516 42.84 713.212 42.344C712.924 41.848 712.78 41.296 712.78 40.688V35.456H723.772V33.512C723.772 33.432 723.74 33.368 723.676 33.32C723.628 33.256 723.564 33.224 723.484 33.224H712.78V30.08H723.604C724.212 30.08 724.764 30.232 725.26 30.536C725.772 30.84 726.172 31.24 726.46 31.736C726.764 32.232 726.916 32.784 726.916 33.392V44H716.092ZM716.212 40.856H723.772V38.288H715.924V40.568C715.924 40.648 715.948 40.72 715.996 40.784C716.06 40.832 716.132 40.856 716.212 40.856Z" fill="#D1D5DB"/>
<path d="M768.395 44V29.912H761.339V26.72H778.619V29.912H771.587V44H768.395ZM783.846 44C783.238 44 782.686 43.848 782.19 43.544C781.694 43.24 781.294 42.84 780.99 42.344C780.686 41.848 780.534 41.296 780.534 40.688V33.392C780.534 32.784 780.686 32.232 780.99 31.736C781.294 31.24 781.694 30.84 782.19 30.536C782.686 30.232 783.238 30.08 783.846 30.08H791.358C791.966 30.08 792.518 30.232 793.014 30.536C793.526 30.84 793.926 31.24 794.214 31.736C794.518 32.232 794.67 32.784 794.67 33.392V38.624H783.678V40.568C783.678 40.648 783.702 40.72 783.75 40.784C783.814 40.832 783.886 40.856 783.966 40.856H794.67V44H783.846ZM783.678 35.792H791.526V33.512C791.526 33.432 791.494 33.368 791.43 33.32C791.382 33.256 791.318 33.224 791.238 33.224H783.966C783.886 33.224 783.814 33.256 783.75 33.32C783.702 33.368 783.678 33.432 783.678 33.512V35.792ZM800.141 44C799.533 44 798.981 43.848 798.485 43.544C797.989 43.24 797.589 42.84 797.285 42.344C796.981 41.848 796.829 41.296 796.829 40.688V33.392C796.829 32.784 796.981 32.232 797.285 31.736C797.589 31.24 797.989 30.84 798.485 30.536C798.981 30.232 799.533 30.08 800.141 30.08H810.941V33.224H800.261C800.181 33.224 800.109 33.256 800.045 33.32C799.997 33.368 799.973 33.432 799.973 33.512V40.568C799.973 40.648 799.997 40.72 800.045 40.784C800.109 40.832 800.181 40.856 800.261 40.856H810.965V44H800.141ZM813.828 44V30.08H824.652C825.26 30.08 825.812 30.232 826.308 30.536C826.82 30.84 827.22 31.24 827.508 31.736C827.812 32.232 827.964 32.784 827.964 33.392V44H824.82V33.512C824.82 33.432 824.788 33.368 824.724 33.32C824.676 33.256 824.612 33.224 824.532 33.224H817.26C817.18 33.224 817.108 33.256 817.044 33.32C816.996 33.368 816.972 33.432 816.972 33.512V44H813.828ZM833.503 44C832.895 44 832.343 43.848 831.847 43.544C831.351 43.24 830.951 42.84 830.647 42.344C830.343 41.848 830.191 41.296 830.191 40.688V33.392C830.191 32.784 830.343 32.232 830.647 31.736C830.951 31.24 831.351 30.84 831.847 30.536C832.343 30.232 832.895 30.08 833.503 30.08H841.015C841.623 30.08 842.175 30.232 842.671 30.536C843.183 30.84 843.583 31.24 843.871 31.736C844.175 32.232 844.327 32.784 844.327 33.392V40.688C844.327 41.296 844.175 41.848 843.871 42.344C843.583 42.84 843.191 43.24 842.695 43.544C842.199 43.848 841.639 44 841.015 44H833.503ZM833.623 40.856H840.895C840.975 40.856 841.039 40.832 841.087 40.784C841.151 40.72 841.183 40.648 841.183 40.568V33.512C841.183 33.432 841.151 33.368 841.087 33.32C841.039 33.256 840.975 33.224 840.895 33.224H833.623C833.543 33.224 833.471 33.256 833.407 33.32C833.359 33.368 833.335 33.432 833.335 33.512V40.568C833.335 40.648 833.359 40.72 833.407 40.784C833.471 40.832 833.543 40.856 833.623 40.856ZM849.799 44C849.191 44 848.639 43.848 848.143 43.544C847.647 43.24 847.247 42.84 846.943 42.344C846.639 41.848 846.487 41.296 846.487 40.688V25.496H849.655V40.568C849.655 40.648 849.679 40.72 849.727 40.784C849.791 40.832 849.863 40.856 849.943 40.856H852.607V44H849.799ZM857.936 44C857.328 44 856.776 43.848 856.28 43.544C855.784 43.24 855.384 42.84 855.08 42.344C854.776 41.848 854.624 41.296 854.624 40.688V33.392C854.624 32.784 854.776 32.232 855.08 31.736C855.384 31.24 855.784 30.84 856.28 30.536C856.776 30.232 857.328 30.08 857.936 30.08H865.448C866.056 30.08 866.608 30.232 867.104 30.536C867.616 30.84 868.016 31.24 868.304 31.736C868.608 32.232 868.76 32.784 868.76 33.392V40.688C868.76 41.296 868.608 41.848 868.304 42.344C868.016 42.84 867.624 43.24 867.128 43.544C866.632 43.848 866.072 44 865.448 44H857.936ZM858.056 40.856H865.328C865.408 40.856 865.472 40.832 865.52 40.784C865.584 40.72 865.616 40.648 865.616 40.568V33.512C865.616 33.432 865.584 33.368 865.52 33.32C865.472 33.256 865.408 33.224 865.328 33.224H858.056C857.976 33.224 857.904 33.256 857.84 33.32C857.792 33.368 857.768 33.432 857.768 33.512V40.568C857.768 40.648 857.792 40.72 857.84 40.784C857.904 40.832 857.976 40.856 858.056 40.856ZM873.57 49.496V46.328H881.946C882.026 46.328 882.09 46.296 882.138 46.232C882.202 46.184 882.234 46.12 882.234 46.04V44H874.554C873.962 44 873.41 43.848 872.898 43.544C872.402 43.24 872.002 42.84 871.698 42.344C871.394 41.848 871.242 41.296 871.242 40.688V33.392C871.242 32.784 871.394 32.232 871.698 31.736C872.002 31.24 872.402 30.84 872.898 30.536C873.41 30.232 873.962 30.08 874.554 30.08H882.09C882.698 30.08 883.25 30.232 883.746 30.536C884.242 30.84 884.634 31.24 884.922 31.736C885.226 32.232 885.378 32.784 885.378 33.392V46.184C885.378 46.808 885.234 47.368 884.946 47.864C884.658 48.36 884.258 48.752 883.746 49.04C883.25 49.344 882.698 49.496 882.09 49.496H873.57ZM874.674 40.856H881.946C882.026 40.856 882.09 40.832 882.138 40.784C882.202 40.72 882.234 40.648 882.234 40.568V33.512C882.234 33.432 882.202 33.368 882.138 33.32C882.09 33.256 882.026 33.224 881.946 33.224H874.674C874.594 33.224 874.522 33.256 874.458 33.32C874.41 33.368 874.386 33.432 874.386 33.512V40.568C874.386 40.648 874.41 40.72 874.458 40.784C874.522 40.832 874.594 40.856 874.674 40.856ZM887.888 44V30.08H891.032V44H887.888ZM887.696 28.64L888.824 24.248H891.992L890.912 28.64H887.696ZM896.813 44C896.205 44 895.645 43.848 895.133 43.544C894.637 43.24 894.237 42.84 893.933 42.344C893.645 41.848 893.501 41.296 893.501 40.688V35.456H904.493V33.512C904.493 33.432 904.461 33.368 904.397 33.32C904.349 33.256 904.285 33.224 904.205 33.224H893.501V30.08H904.325C904.933 30.08 905.485 30.232 905.981 30.536C906.493 30.84 906.893 31.24 907.181 31.736C907.485 32.232 907.637 32.784 907.637 33.392V44H896.813ZM896.933 40.856H904.493V38.288H896.645V40.568C896.645 40.648 896.669 40.72 896.717 40.784C896.781 40.832 896.853 40.856 896.933 40.856ZM913.106 44C912.498 44 911.946 43.848 911.45 43.544C910.954 43.24 910.554 42.84 910.25 42.344C909.946 41.848 909.794 41.296 909.794 40.688V40.16H912.938V40.568C912.938 40.648 912.962 40.72 913.01 40.784C913.074 40.832 913.146 40.856 913.226 40.856H920.498C920.578 40.856 920.642 40.832 920.69 40.784C920.754 40.72 920.786 40.648 920.786 40.568V38.912C920.786 38.832 920.754 38.768 920.69 38.72C920.642 38.656 920.578 38.624 920.498 38.624H913.106C912.498 38.624 911.946 38.472 911.45 38.168C910.954 37.864 910.554 37.464 910.25 36.968C909.946 36.472 909.794 35.92 909.794 35.312V33.392C909.794 32.784 909.946 32.232 910.25 31.736C910.554 31.24 910.954 30.84 911.45 30.536C911.946 30.232 912.498 30.08 913.106 30.08H920.618C921.242 30.08 921.802 30.232 922.298 30.536C922.794 30.84 923.194 31.24 923.498 31.736C923.802 32.232 923.954 32.784 923.954 33.392V33.92H920.786V33.512C920.786 33.432 920.754 33.368 920.69 33.32C920.642 33.256 920.578 33.224 920.498 33.224H913.226C913.146 33.224 913.074 33.256 913.01 33.32C912.962 33.368 912.938 33.432 912.938 33.512V35.168C912.938 35.248 912.962 35.32 913.01 35.384C913.074 35.432 913.146 35.456 913.226 35.456H920.618C921.242 35.456 921.802 35.608 922.298 35.912C922.794 36.216 923.194 36.616 923.498 37.112C923.802 37.608 923.954 38.16 923.954 38.768V40.688C923.954 41.296 923.802 41.848 923.498 42.344C923.194 42.84 922.794 43.24 922.298 43.544C921.802 43.848 921.242 44 920.618 44H913.106Z" fill="#D1D5DB"/>
<path d="M962.539 44C961.931 44 961.371 43.848 960.859 43.544C960.363 43.24 959.963 42.84 959.659 42.344C959.355 41.832 959.203 41.272 959.203 40.664V30.056C959.203 29.448 959.355 28.896 959.659 28.4C959.963 27.888 960.363 27.48 960.859 27.176C961.371 26.872 961.931 26.72 962.539 26.72H976.435V29.912H963.211C962.955 29.912 962.747 29.984 962.587 30.128C962.443 30.272 962.371 30.48 962.371 30.752V39.968C962.371 40.224 962.443 40.432 962.587 40.592C962.747 40.736 962.955 40.808 963.211 40.808H976.435V44H962.539ZM982.369 44C981.761 44 981.209 43.848 980.713 43.544C980.217 43.24 979.817 42.84 979.513 42.344C979.209 41.848 979.057 41.296 979.057 40.688V33.392C979.057 32.784 979.209 32.232 979.513 31.736C979.817 31.24 980.217 30.84 980.713 30.536C981.209 30.232 981.761 30.08 982.369 30.08H989.881C990.489 30.08 991.041 30.232 991.537 30.536C992.049 30.84 992.449 31.24 992.737 31.736C993.041 32.232 993.193 32.784 993.193 33.392V40.688C993.193 41.296 993.041 41.848 992.737 42.344C992.449 42.84 992.057 43.24 991.561 43.544C991.065 43.848 990.505 44 989.881 44H982.369ZM982.489 40.856H989.761C989.841 40.856 989.905 40.832 989.953 40.784C990.017 40.72 990.049 40.648 990.049 40.568V33.512C990.049 33.432 990.017 33.368 989.953 33.32C989.905 33.256 989.841 33.224 989.761 33.224H982.489C982.409 33.224 982.337 33.256 982.273 33.32C982.225 33.368 982.201 33.432 982.201 33.512V40.568C982.201 40.648 982.225 40.72 982.273 40.784C982.337 40.832 982.409 40.856 982.489 40.856ZM995.401 44V30.08H1006.22C1006.83 30.08 1007.38 30.232 1007.88 30.536C1008.39 30.84 1008.79 31.24 1009.08 31.736C1009.38 32.232 1009.54 32.784 1009.54 33.392V44H1006.39V33.512C1006.39 33.432 1006.36 33.368 1006.3 33.32C1006.25 33.256 1006.18 33.224 1006.1 33.224H998.833C998.753 33.224 998.681 33.256 998.617 33.32C998.569 33.368 998.545 33.432 998.545 33.512V44H995.401ZM1015.64 44C1015.03 44 1014.48 43.848 1013.98 43.544C1013.49 43.24 1013.09 42.84 1012.78 42.344C1012.48 41.848 1012.33 41.296 1012.33 40.688V25.808H1015.47V30.08H1020.9V33.224H1015.47V40.568C1015.47 40.648 1015.5 40.72 1015.54 40.784C1015.61 40.832 1015.68 40.856 1015.76 40.856H1020.9V44H1015.64ZM1026.38 44C1025.77 44 1025.21 43.848 1024.7 43.544C1024.2 43.24 1023.8 42.84 1023.5 42.344C1023.21 41.848 1023.07 41.296 1023.07 40.688V35.456H1034.06V33.512C1034.06 33.432 1034.03 33.368 1033.96 33.32C1033.91 33.256 1033.85 33.224 1033.77 33.224H1023.07V30.08H1033.89C1034.5 30.08 1035.05 30.232 1035.55 30.536C1036.06 30.84 1036.46 31.24 1036.75 31.736C1037.05 32.232 1037.2 32.784 1037.2 33.392V44H1026.38ZM1026.5 40.856H1034.06V38.288H1026.21V40.568C1026.21 40.648 1026.23 40.72 1026.28 40.784C1026.35 40.832 1026.42 40.856 1026.5 40.856ZM1028.87 28.64L1030 24.248H1033.17L1032.09 28.64H1028.87ZM1043.26 44C1042.65 44 1042.1 43.848 1041.6 43.544C1041.11 43.24 1040.71 42.84 1040.4 42.344C1040.1 41.848 1039.95 41.296 1039.95 40.688V33.392C1039.95 32.784 1040.1 32.232 1040.4 31.736C1040.71 31.24 1041.11 30.84 1041.6 30.536C1042.1 30.232 1042.65 30.08 1043.26 30.08H1054.06V33.224H1043.38C1043.3 33.224 1043.23 33.256 1043.16 33.32C1043.11 33.368 1043.09 33.432 1043.09 33.512V40.568C1043.09 40.648 1043.11 40.72 1043.16 40.784C1043.23 40.832 1043.3 40.856 1043.38 40.856H1054.08V44H1043.26ZM1059.6 44C1058.99 44 1058.44 43.848 1057.95 43.544C1057.45 43.24 1057.05 42.84 1056.75 42.344C1056.44 41.848 1056.29 41.296 1056.29 40.688V25.808H1059.43V30.08H1064.86V33.224H1059.43V40.568C1059.43 40.648 1059.46 40.72 1059.51 40.784C1059.57 40.832 1059.64 40.856 1059.72 40.856H1064.86V44H1059.6ZM1070.83 44C1070.23 44 1069.67 43.848 1069.15 43.544C1068.66 43.24 1068.26 42.84 1067.95 42.344C1067.67 41.848 1067.52 41.296 1067.52 40.688V35.456H1078.51V33.512C1078.51 33.432 1078.48 33.368 1078.42 33.32C1078.37 33.256 1078.31 33.224 1078.23 33.224H1067.52V30.08H1078.35C1078.95 30.08 1079.51 30.232 1080 30.536C1080.51 30.84 1080.91 31.24 1081.2 31.736C1081.51 32.232 1081.66 32.784 1081.66 33.392V44H1070.83ZM1070.95 40.856H1078.51V38.288H1070.67V40.568C1070.67 40.648 1070.69 40.72 1070.74 40.784C1070.8 40.832 1070.87 40.856 1070.95 40.856ZM1083.86 44V30.08H1101.12C1101.74 30.08 1102.3 30.232 1102.8 30.536C1103.3 30.84 1103.69 31.24 1103.98 31.736C1104.28 32.232 1104.43 32.784 1104.43 33.392V44H1101.31V33.512C1101.31 33.432 1101.28 33.368 1101.22 33.32C1101.15 33.256 1101.08 33.224 1101 33.224H1096.03C1095.95 33.224 1095.88 33.256 1095.82 33.32C1095.77 33.368 1095.74 33.432 1095.74 33.512V44H1092.58V33.512C1092.58 33.432 1092.54 33.368 1092.48 33.32C1092.43 33.256 1092.37 33.224 1092.29 33.224H1087.3C1087.22 33.224 1087.14 33.256 1087.08 33.32C1087.03 33.368 1087.01 33.432 1087.01 33.512V44H1083.86ZM1110.15 44C1109.54 44 1108.99 43.848 1108.49 43.544C1108 43.24 1107.6 42.84 1107.29 42.344C1106.99 41.848 1106.84 41.296 1106.84 40.688V33.392C1106.84 32.784 1106.99 32.232 1107.29 31.736C1107.6 31.24 1108 30.84 1108.49 30.536C1108.99 30.232 1109.54 30.08 1110.15 30.08H1117.66C1118.27 30.08 1118.82 30.232 1119.32 30.536C1119.83 30.84 1120.23 31.24 1120.52 31.736C1120.82 32.232 1120.97 32.784 1120.97 33.392V38.624H1109.98V40.568C1109.98 40.648 1110 40.72 1110.05 40.784C1110.12 40.832 1110.19 40.856 1110.27 40.856H1120.97V44H1110.15ZM1109.98 35.792H1117.83V33.512C1117.83 33.432 1117.8 33.368 1117.73 33.32C1117.68 33.256 1117.62 33.224 1117.54 33.224H1110.27C1110.19 33.224 1110.12 33.256 1110.05 33.32C1110 33.368 1109.98 33.432 1109.98 33.512V35.792Z" fill="#FF3C38"/>
<rect x="1226.86" y="17" width="50" height="36" rx="8" fill="#4B5563"/>
<g clip-path="url(#clip1_1584_1917)">
<path d="M1230.36 35C1230.36 32.3478 1231.41 29.8043 1233.29 27.9289C1235.16 26.0536 1237.71 25 1240.36 25C1243.01 25 1245.55 26.0536 1247.43 27.9289C1249.31 29.8043 1250.36 32.3478 1250.36 35C1250.36 37.6522 1249.31 40.1957 1247.43 42.0711C1245.55 43.9464 1243.01 45 1240.36 45C1237.71 45 1235.16 43.9464 1233.29 42.0711C1231.41 40.1957 1230.36 37.6522 1230.36 35ZM1239.73 26.3463C1238.9 26.6013 1238.07 27.3712 1237.38 28.665C1237.2 29.0008 1237.03 29.3642 1236.88 29.755C1237.76 29.9513 1238.72 30.0763 1239.73 30.1137V26.3463ZM1235.67 29.4237C1235.85 28.9429 1236.05 28.4937 1236.27 28.0763C1236.49 27.6684 1236.74 27.2784 1237.02 26.91C1235.95 27.3507 1234.99 27.9972 1234.17 28.8125C1234.63 29.0433 1235.13 29.2463 1235.67 29.4237ZM1234.75 34.375C1234.79 33.0375 1234.98 31.7663 1235.29 30.615C1234.61 30.3995 1233.96 30.1203 1233.33 29.7812C1232.34 31.1178 1231.75 32.7123 1231.63 34.375H1234.75ZM1236.5 30.9487C1236.2 32.0684 1236.03 33.2177 1236 34.375H1239.73V31.3637C1238.6 31.3263 1237.51 31.1825 1236.5 30.9487ZM1240.98 31.3625V34.375H1244.72C1244.68 33.2178 1244.52 32.0684 1244.22 30.9487C1243.21 31.1825 1242.12 31.3238 1240.98 31.3625ZM1236 35.625C1236.04 36.8588 1236.22 38.0175 1236.5 39.0513C1237.56 38.8097 1238.64 38.6712 1239.73 38.6375V35.625H1236ZM1240.98 35.625V38.6363C1242.12 38.6738 1243.21 38.8175 1244.22 39.0513C1244.5 38.0175 1244.68 36.8588 1244.72 35.625H1240.98ZM1236.88 40.245C1237.03 40.6358 1237.2 40.9992 1237.38 41.335C1238.07 42.6287 1238.9 43.3975 1239.73 43.6538V39.8875C1238.72 39.925 1237.76 40.0487 1236.88 40.245ZM1237.02 43.09C1236.74 42.7216 1236.49 42.3316 1236.27 41.9237C1236.04 41.4878 1235.84 41.0373 1235.67 40.575C1235.16 40.7403 1234.66 40.9451 1234.17 41.1875C1234.99 42.0028 1235.95 42.6493 1237.02 43.09ZM1235.29 39.385C1234.97 38.1564 1234.78 36.895 1234.74 35.625H1231.63C1231.75 37.2877 1232.34 38.8822 1233.33 40.2188C1233.92 39.8963 1234.58 39.6163 1235.29 39.385ZM1243.7 43.09C1244.76 42.6495 1245.73 42.0034 1246.54 41.1888C1246.06 40.9464 1245.56 40.7417 1245.05 40.5763C1244.88 41.0381 1244.68 41.4882 1244.45 41.9237C1244.23 42.3316 1243.98 42.7216 1243.7 43.09ZM1240.98 39.8863V43.6538C1241.82 43.3988 1242.65 42.6287 1243.34 41.335C1243.52 40.9992 1243.69 40.6358 1243.84 40.245C1242.9 40.0391 1241.94 39.9182 1240.98 39.8863ZM1245.43 39.385C1246.14 39.6163 1246.8 39.8963 1247.38 40.2188C1248.38 38.8822 1248.97 37.2877 1249.09 35.625H1245.97C1245.94 36.895 1245.75 38.1564 1245.43 39.385ZM1249.09 34.375C1248.97 32.7123 1248.38 31.1178 1247.38 29.7812C1246.8 30.1038 1246.14 30.3837 1245.43 30.615C1245.74 31.765 1245.93 33.0375 1245.97 34.375H1249.09ZM1244.45 28.0763C1244.67 28.4946 1244.87 28.9438 1245.05 29.4237C1245.56 29.2583 1246.06 29.0535 1246.54 28.8112C1245.73 27.997 1244.76 27.3514 1243.7 26.9113C1243.97 27.265 1244.22 27.6575 1244.45 28.0763ZM1243.84 29.755C1243.69 29.3821 1243.53 29.0182 1243.34 28.665C1242.65 27.3712 1241.82 26.6025 1240.98 26.3463V30.1125C1242 30.075 1242.96 29.9513 1243.84 29.755Z" fill="#D1D5DB"/>
</g>
<g clip-path="url(#clip2_1584_1917)">
<path d="M1270.71 31.4679L1266.74 38.9557C1266.46 39.4972 1266.31 39.7679 1266.12 39.8564C1265.95 39.9335 1265.76 39.9335 1265.6 39.8564C1265.41 39.7679 1265.26 39.4972 1264.98 38.9557L1261.01 31.4679C1260.75 30.9836 1260.63 30.7414 1260.65 30.5438C1260.67 30.3713 1260.77 30.2161 1260.91 30.1154C1261.07 30.0001 1261.35 30.0001 1261.89 30.0001H1269.82C1270.37 30.0001 1270.65 30.0001 1270.81 30.1154C1270.95 30.2161 1271.04 30.3713 1271.07 30.5438C1271.09 30.7414 1270.96 30.9836 1270.71 31.4679Z" fill="#D1D5DB" stroke="#D1D5DB" stroke-width="66.6667" stroke-linecap="round" stroke-linejoin="round"/>
</g>
<path d="M553.394 343V339.04L558.65 337.744V338.212H561.746V343H553.394ZM537.734 343C536.822 343 535.982 342.772 535.214 342.316C534.47 341.86 533.87 341.26 533.414 340.516C532.958 339.748 532.73 338.908 532.73 337.996V322.084C532.73 321.172 532.958 320.344 533.414 319.6C533.87 318.832 534.47 318.22 535.214 317.764C535.982 317.308 536.822 317.08 537.734 317.08H553.646C554.558 317.08 555.386 317.308 556.13 317.764C556.898 318.22 557.51 318.832 557.966 319.6C558.422 320.344 558.65 321.172 558.65 322.084V337.996C558.65 338.908 558.422 339.748 557.966 340.516C557.51 341.26 556.898 341.86 556.13 342.316C555.386 342.772 554.558 343 553.646 343H537.734ZM537.914 338.212H553.394C553.514 338.212 553.622 338.176 553.718 338.104C553.814 338.008 553.862 337.9 553.862 337.78V322.3C553.862 322.18 553.814 322.084 553.718 322.012C553.622 321.916 553.514 321.868 553.394 321.868H537.914C537.794 321.868 537.686 321.916 537.59 322.012C537.518 322.084 537.482 322.18 537.482 322.3V337.78C537.482 337.9 537.518 338.008 537.59 338.104C537.686 338.176 537.794 338.212 537.914 338.212ZM570.199 343C569.287 343 568.447 342.772 567.679 342.316C566.935 341.86 566.335 341.26 565.879 340.516C565.447 339.772 565.231 338.944 565.231 338.032V322.12H569.947V337.852C569.947 337.972 569.983 338.08 570.055 338.176C570.151 338.248 570.259 338.284 570.379 338.284H581.287C581.407 338.284 581.503 338.248 581.575 338.176C581.671 338.08 581.719 337.972 581.719 337.852V322.12H586.435V338.032C586.435 338.944 586.207 339.772 585.751 340.516C585.319 341.26 584.731 341.86 583.987 342.316C583.243 342.772 582.403 343 581.467 343H570.199ZM590.946 343V322.12H595.662V343H590.946ZM590.946 320.032V315.28H595.662V320.032H590.946ZM604.824 343C603.912 343 603.084 342.772 602.34 342.316C601.596 341.86 600.996 341.26 600.54 340.516C600.084 339.772 599.856 338.944 599.856 338.032V327.088C599.856 326.176 600.084 325.348 600.54 324.604C600.996 323.86 601.596 323.26 602.34 322.804C603.084 322.348 603.912 322.12 604.824 322.12H616.092C617.004 322.12 617.832 322.348 618.576 322.804C619.344 323.26 619.944 323.86 620.376 324.604C620.832 325.348 621.06 326.176 621.06 327.088V334.936H604.572V337.852C604.572 337.972 604.608 338.08 604.68 338.176C604.776 338.248 604.884 338.284 605.004 338.284H621.06V343H604.824ZM604.572 330.688H616.344V327.268C616.344 327.148 616.296 327.052 616.2 326.98C616.128 326.884 616.032 326.836 615.912 326.836H605.004C604.884 326.836 604.776 326.884 604.68 326.98C604.608 327.052 604.572 327.148 604.572 327.268V330.688ZM625.327 343V327.088C625.327 326.176 625.555 325.348 626.011 324.604C626.467 323.86 627.067 323.26 627.811 322.804C628.579 322.348 629.407 322.12 630.295 322.12H641.887V326.836H630.475C630.355 326.836 630.247 326.884 630.151 326.98C630.079 327.052 630.043 327.148 630.043 327.268V343H625.327ZM650.034 343C649.122 343 648.294 342.772 647.55 342.316C646.806 341.86 646.206 341.26 645.75 340.516C645.294 339.772 645.066 338.944 645.066 338.032V327.088C645.066 326.176 645.294 325.348 645.75 324.604C646.206 323.86 646.806 323.26 647.55 322.804C648.294 322.348 649.122 322.12 650.034 322.12H661.302C662.214 322.12 663.042 322.348 663.786 322.804C664.554 323.26 665.154 323.86 665.586 324.604C666.042 325.348 666.27 326.176 666.27 327.088V334.936H649.782V337.852C649.782 337.972 649.818 338.08 649.89 338.176C649.986 338.248 650.094 338.284 650.214 338.284H666.27V343H650.034ZM649.782 330.688H661.554V327.268C661.554 327.148 661.506 327.052 661.41 326.98C661.338 326.884 661.242 326.836 661.122 326.836H650.214C650.094 326.836 649.986 326.884 649.89 326.98C649.818 327.052 649.782 327.148 649.782 327.268V330.688ZM675.326 343C674.414 343 673.586 342.772 672.842 342.316C672.098 341.86 671.498 341.26 671.042 340.516C670.586 339.772 670.358 338.944 670.358 338.032V337.24H675.074V337.852C675.074 337.972 675.11 338.08 675.182 338.176C675.278 338.248 675.386 338.284 675.506 338.284H686.414C686.534 338.284 686.63 338.248 686.702 338.176C686.798 338.08 686.846 337.972 686.846 337.852V335.368C686.846 335.248 686.798 335.152 686.702 335.08C686.63 334.984 686.534 334.936 686.414 334.936H675.326C674.414 334.936 673.586 334.708 672.842 334.252C672.098 333.796 671.498 333.196 671.042 332.452C670.586 331.708 670.358 330.88 670.358 329.968V327.088C670.358 326.176 670.586 325.348 671.042 324.604C671.498 323.86 672.098 323.26 672.842 322.804C673.586 322.348 674.414 322.12 675.326 322.12H686.594C687.53 322.12 688.37 322.348 689.114 322.804C689.858 323.26 690.458 323.86 690.914 324.604C691.37 325.348 691.598 326.176 691.598 327.088V327.88H686.846V327.268C686.846 327.148 686.798 327.052 686.702 326.98C686.63 326.884 686.534 326.836 686.414 326.836H675.506C675.386 326.836 675.278 326.884 675.182 326.98C675.11 327.052 675.074 327.148 675.074 327.268V329.752C675.074 329.872 675.11 329.98 675.182 330.076C675.278 330.148 675.386 330.184 675.506 330.184H686.594C687.53 330.184 688.37 330.412 689.114 330.868C689.858 331.324 690.458 331.924 690.914 332.668C691.37 333.412 691.598 334.24 691.598 335.152V338.032C691.598 338.944 691.37 339.772 690.914 340.516C690.458 341.26 689.858 341.86 689.114 342.316C688.37 342.772 687.53 343 686.594 343H675.326ZM712.557 343C711.645 343 710.817 342.772 710.073 342.316C709.329 341.86 708.729 341.26 708.273 340.516C707.817 339.772 707.589 338.944 707.589 338.032V327.088C707.589 326.176 707.817 325.348 708.273 324.604C708.729 323.86 709.329 323.26 710.073 322.804C710.817 322.348 711.645 322.12 712.557 322.12H728.757V326.836H712.737C712.617 326.836 712.509 326.884 712.413 326.98C712.341 327.052 712.305 327.148 712.305 327.268V337.852C712.305 337.972 712.341 338.08 712.413 338.176C712.509 338.248 712.617 338.284 712.737 338.284H728.793V343H712.557ZM738.062 343C737.15 343 736.322 342.772 735.578 342.316C734.834 341.86 734.234 341.26 733.778 340.516C733.322 339.772 733.094 338.944 733.094 338.032V327.088C733.094 326.176 733.322 325.348 733.778 324.604C734.234 323.86 734.834 323.26 735.578 322.804C736.322 322.348 737.15 322.12 738.062 322.12H749.33C750.242 322.12 751.07 322.348 751.814 322.804C752.582 323.26 753.182 323.86 753.614 324.604C754.07 325.348 754.298 326.176 754.298 327.088V338.032C754.298 338.944 754.07 339.772 753.614 340.516C753.182 341.26 752.594 341.86 751.85 342.316C751.106 342.772 750.266 343 749.33 343H738.062ZM738.242 338.284H749.15C749.27 338.284 749.366 338.248 749.438 338.176C749.534 338.08 749.582 337.972 749.582 337.852V327.268C749.582 327.148 749.534 327.052 749.438 326.98C749.366 326.884 749.27 326.836 749.15 326.836H738.242C738.122 326.836 738.014 326.884 737.918 326.98C737.846 327.052 737.81 327.148 737.81 327.268V337.852C737.81 337.972 737.846 338.08 737.918 338.176C738.014 338.248 738.122 338.284 738.242 338.284ZM757.969 343V322.12H774.205C775.117 322.12 775.945 322.348 776.689 322.804C777.457 323.26 778.057 323.86 778.489 324.604C778.945 325.348 779.173 326.176 779.173 327.088V343H774.457V327.268C774.457 327.148 774.409 327.052 774.313 326.98C774.241 326.884 774.145 326.836 774.025 326.836H763.117C762.997 326.836 762.889 326.884 762.793 326.98C762.721 327.052 762.685 327.148 762.685 327.268V343H757.969ZM788.016 343C787.104 343 786.276 342.772 785.532 342.316C784.788 341.86 784.188 341.26 783.732 340.516C783.276 339.772 783.048 338.944 783.048 338.032V337.24H787.764V337.852C787.764 337.972 787.8 338.08 787.872 338.176C787.968 338.248 788.076 338.284 788.196 338.284H799.104C799.224 338.284 799.32 338.248 799.392 338.176C799.488 338.08 799.536 337.972 799.536 337.852V335.368C799.536 335.248 799.488 335.152 799.392 335.08C799.32 334.984 799.224 334.936 799.104 334.936H788.016C787.104 334.936 786.276 334.708 785.532 334.252C784.788 333.796 784.188 333.196 783.732 332.452C783.276 331.708 783.048 330.88 783.048 329.968V327.088C783.048 326.176 783.276 325.348 783.732 324.604C784.188 323.86 784.788 323.26 785.532 322.804C786.276 322.348 787.104 322.12 788.016 322.12H799.284C800.22 322.12 801.06 322.348 801.804 322.804C802.548 323.26 803.148 323.86 803.604 324.604C804.06 325.348 804.288 326.176 804.288 327.088V327.88H799.536V327.268C799.536 327.148 799.488 327.052 799.392 326.98C799.32 326.884 799.224 326.836 799.104 326.836H788.196C788.076 326.836 787.968 326.884 787.872 326.98C787.8 327.052 787.764 327.148 787.764 327.268V329.752C787.764 329.872 787.8 329.98 787.872 330.076C787.968 330.148 788.076 330.184 788.196 330.184H799.284C800.22 330.184 801.06 330.412 801.804 330.868C802.548 331.324 803.148 331.924 803.604 332.668C804.06 333.412 804.288 334.24 804.288 335.152V338.032C804.288 338.944 804.06 339.772 803.604 340.516C803.148 341.26 802.548 341.86 801.804 342.316C801.06 342.772 800.22 343 799.284 343H788.016ZM813.595 343C812.683 343 811.855 342.772 811.111 342.316C810.367 341.86 809.767 341.26 809.311 340.516C808.855 339.772 808.627 338.944 808.627 338.032V315.712H813.343V322.12H821.479V326.836H813.343V337.852C813.343 337.972 813.379 338.08 813.451 338.176C813.547 338.248 813.655 338.284 813.775 338.284H821.479V343H813.595ZM825.342 343V327.088C825.342 326.176 825.57 325.348 826.026 324.604C826.482 323.86 827.082 323.26 827.826 322.804C828.594 322.348 829.422 322.12 830.31 322.12H841.902V326.836H830.49C830.37 326.836 830.262 326.884 830.166 326.98C830.094 327.052 830.058 327.148 830.058 327.268V343H825.342ZM850.367 343C849.455 343 848.615 342.772 847.847 342.316C847.103 341.86 846.503 341.26 846.047 340.516C845.615 339.772 845.399 338.944 845.399 338.032V322.12H850.115V337.852C850.115 337.972 850.151 338.08 850.223 338.176C850.319 338.248 850.427 338.284 850.547 338.284H861.455C861.575 338.284 861.671 338.248 861.743 338.176C861.839 338.08 861.887 337.972 861.887 337.852V322.12H866.603V338.032C866.603 338.944 866.375 339.772 865.919 340.516C865.487 341.26 864.899 341.86 864.155 342.316C863.411 342.772 862.571 343 861.635 343H850.367ZM871.114 343V322.12H875.83V343H871.114ZM871.114 320.032V315.28H875.83V320.032H871.114ZM880.553 343V327.088C880.553 326.176 880.781 325.348 881.237 324.604C881.693 323.86 882.293 323.26 883.037 322.804C883.805 322.348 884.633 322.12 885.521 322.12H897.113V326.836H885.701C885.581 326.836 885.473 326.884 885.377 326.98C885.305 327.052 885.269 327.148 885.269 327.268V343H880.553ZM601.028 388C600.116 388 599.276 387.772 598.508 387.316C597.764 386.86 597.164 386.26 596.708 385.516C596.276 384.772 596.06 383.944 596.06 383.032V375.184H612.548V372.268C612.548 372.148 612.5 372.052 612.404 371.98C612.332 371.884 612.236 371.836 612.116 371.836H596.06V367.12H612.296C613.208 367.12 614.036 367.348 614.78 367.804C615.548 368.26 616.148 368.86 616.58 369.604C617.036 370.348 617.264 371.176 617.264 372.088V388H601.028ZM601.208 383.284H612.548V379.432H600.776V382.852C600.776 382.972 600.812 383.08 600.884 383.176C600.98 383.248 601.088 383.284 601.208 383.284ZM625.971 388C625.059 388 624.231 387.772 623.487 387.316C622.743 386.86 622.143 386.26 621.687 385.516C621.231 384.772 621.003 383.944 621.003 383.032V360.244H625.755V382.852C625.755 382.972 625.791 383.08 625.863 383.176C625.959 383.248 626.067 383.284 626.187 383.284H630.183V388H625.971ZM636.561 396.244V391.492H649.125C649.245 391.492 649.341 391.444 649.413 391.348C649.509 391.276 649.557 391.18 649.557 391.06V388H638.037C637.149 388 636.321 387.772 635.553 387.316C634.809 386.86 634.209 386.26 633.753 385.516C633.297 384.772 633.069 383.944 633.069 383.032V372.088C633.069 371.176 633.297 370.348 633.753 369.604C634.209 368.86 634.809 368.26 635.553 367.804C636.321 367.348 637.149 367.12 638.037 367.12H649.341C650.253 367.12 651.081 367.348 651.825 367.804C652.569 368.26 653.157 368.86 653.589 369.604C654.045 370.348 654.273 371.176 654.273 372.088V391.276C654.273 392.212 654.057 393.052 653.625 393.796C653.193 394.54 652.593 395.128 651.825 395.56C651.081 396.016 650.253 396.244 649.341 396.244H636.561ZM638.217 383.284H649.125C649.245 383.284 649.341 383.248 649.413 383.176C649.509 383.08 649.557 382.972 649.557 382.852V372.268C649.557 372.148 649.509 372.052 649.413 371.98C649.341 371.884 649.245 371.836 649.125 371.836H638.217C638.097 371.836 637.989 371.884 637.893 371.98C637.821 372.052 637.785 372.148 637.785 372.268V382.852C637.785 382.972 637.821 383.08 637.893 383.176C637.989 383.248 638.097 383.284 638.217 383.284ZM662.918 388C662.006 388 661.178 387.772 660.434 387.316C659.69 386.86 659.09 386.26 658.634 385.516C658.178 384.772 657.95 383.944 657.95 383.032V372.088C657.95 371.176 658.178 370.348 658.634 369.604C659.09 368.86 659.69 368.26 660.434 367.804C661.178 367.348 662.006 367.12 662.918 367.12H674.186C675.098 367.12 675.926 367.348 676.67 367.804C677.438 368.26 678.038 368.86 678.47 369.604C678.926 370.348 679.154 371.176 679.154 372.088V383.032C679.154 383.944 678.926 384.772 678.47 385.516C678.038 386.26 677.45 386.86 676.706 387.316C675.962 387.772 675.122 388 674.186 388H662.918ZM663.098 383.284H674.006C674.126 383.284 674.222 383.248 674.294 383.176C674.39 383.08 674.438 382.972 674.438 382.852V372.268C674.438 372.148 674.39 372.052 674.294 371.98C674.222 371.884 674.126 371.836 674.006 371.836H663.098C662.978 371.836 662.87 371.884 662.774 371.98C662.702 372.052 662.666 372.148 662.666 372.268V382.852C662.666 382.972 662.702 383.08 662.774 383.176C662.87 383.248 662.978 383.284 663.098 383.284ZM686.752 395.884V391.132H695.572C695.692 391.132 695.788 391.084 695.86 390.988C695.956 390.916 696.004 390.82 696.004 390.7V367.12H700.72V390.916C700.72 391.828 700.492 392.656 700.036 393.4C699.604 394.168 699.004 394.768 698.236 395.2C697.492 395.656 696.664 395.884 695.752 395.884H686.752ZM696.004 365.032V360.28H700.72V365.032H696.004ZM709.939 388C709.027 388 708.187 387.772 707.419 387.316C706.675 386.86 706.075 386.26 705.619 385.516C705.187 384.772 704.971 383.944 704.971 383.032V367.12H709.687V382.852C709.687 382.972 709.723 383.08 709.795 383.176C709.891 383.248 709.999 383.284 710.119 383.284H721.027C721.147 383.284 721.243 383.248 721.315 383.176C721.411 383.08 721.459 382.972 721.459 382.852V367.12H726.175V383.032C726.175 383.944 725.947 384.772 725.491 385.516C725.059 386.26 724.471 386.86 723.727 387.316C722.983 387.772 722.143 388 721.207 388H709.939ZM730.794 388V367.12H747.03C747.942 367.12 748.77 367.348 749.514 367.804C750.282 368.26 750.882 368.86 751.314 369.604C751.77 370.348 751.998 371.176 751.998 372.088V388H747.282V372.268C747.282 372.148 747.234 372.052 747.138 371.98C747.066 371.884 746.97 371.836 746.85 371.836H735.942C735.822 371.836 735.714 371.884 735.618 371.98C735.546 372.052 735.51 372.148 735.51 372.268V388H730.794ZM761.512 388C760.6 388 759.772 387.772 759.028 387.316C758.284 386.86 757.684 386.26 757.228 385.516C756.772 384.772 756.544 383.944 756.544 383.032V360.712H761.26V367.12H769.396V371.836H761.26V382.852C761.26 382.972 761.296 383.08 761.368 383.176C761.464 383.248 761.572 383.284 761.692 383.284H769.396V388H761.512ZM777.945 388C777.033 388 776.205 387.772 775.461 387.316C774.717 386.86 774.117 386.26 773.661 385.516C773.205 384.772 772.977 383.944 772.977 383.032V372.088C772.977 371.176 773.205 370.348 773.661 369.604C774.117 368.86 774.717 368.26 775.461 367.804C776.205 367.348 777.033 367.12 777.945 367.12H789.213C790.125 367.12 790.953 367.348 791.697 367.804C792.465 368.26 793.065 368.86 793.497 369.604C793.953 370.348 794.181 371.176 794.181 372.088V383.032C794.181 383.944 793.953 384.772 793.497 385.516C793.065 386.26 792.477 386.86 791.733 387.316C790.989 387.772 790.149 388 789.213 388H777.945ZM778.125 383.284H789.033C789.153 383.284 789.249 383.248 789.321 383.176C789.417 383.08 789.465 382.972 789.465 382.852V372.268C789.465 372.148 789.417 372.052 789.321 371.98C789.249 371.884 789.153 371.836 789.033 371.836H778.125C778.005 371.836 777.897 371.884 777.801 371.98C777.729 372.052 777.693 372.148 777.693 372.268V382.852C777.693 382.972 777.729 383.08 777.801 383.176C777.897 383.248 778.005 383.284 778.125 383.284ZM802.709 388C801.797 388 800.969 387.772 800.225 387.316C799.481 386.86 798.881 386.26 798.425 385.516C797.969 384.772 797.741 383.944 797.741 383.032V382.24H802.457V382.852C802.457 382.972 802.493 383.08 802.565 383.176C802.661 383.248 802.769 383.284 802.889 383.284H813.797C813.917 383.284 814.013 383.248 814.085 383.176C814.181 383.08 814.229 382.972 814.229 382.852V380.368C814.229 380.248 814.181 380.152 814.085 380.08C814.013 379.984 813.917 379.936 813.797 379.936H802.709C801.797 379.936 800.969 379.708 800.225 379.252C799.481 378.796 798.881 378.196 798.425 377.452C797.969 376.708 797.741 375.88 797.741 374.968V372.088C797.741 371.176 797.969 370.348 798.425 369.604C798.881 368.86 799.481 368.26 800.225 367.804C800.969 367.348 801.797 367.12 802.709 367.12H813.977C814.913 367.12 815.753 367.348 816.497 367.804C817.241 368.26 817.841 368.86 818.297 369.604C818.753 370.348 818.981 371.176 818.981 372.088V372.88H814.229V372.268C814.229 372.148 814.181 372.052 814.085 371.98C814.013 371.884 813.917 371.836 813.797 371.836H802.889C802.769 371.836 802.661 371.884 802.565 371.98C802.493 372.052 802.457 372.148 802.457 372.268V374.752C802.457 374.872 802.493 374.98 802.565 375.076C802.661 375.148 802.769 375.184 802.889 375.184H813.977C814.913 375.184 815.753 375.412 816.497 375.868C817.241 376.324 817.841 376.924 818.297 377.668C818.753 378.412 818.981 379.24 818.981 380.152V383.032C818.981 383.944 818.753 384.772 818.297 385.516C817.841 386.26 817.241 386.86 816.497 387.316C815.753 387.772 814.913 388 813.977 388H802.709ZM826.309 380.944V378.532C826.309 377.62 826.525 376.792 826.957 376.048C827.413 375.28 828.013 374.68 828.757 374.248C829.525 373.792 830.353 373.564 831.241 373.564H839.953C840.073 373.564 840.169 373.528 840.241 373.456C840.337 373.36 840.385 373.252 840.385 373.132V367.264C840.385 367.144 840.337 367.048 840.241 366.976C840.169 366.88 840.073 366.832 839.953 366.832H822.529V362.08H840.133C841.021 362.08 841.837 362.308 842.581 362.764C843.349 363.22 843.961 363.82 844.417 364.564C844.873 365.308 845.101 366.136 845.101 367.048V373.348C845.101 374.26 844.873 375.088 844.417 375.832C843.961 376.576 843.349 377.176 842.581 377.632C841.837 378.088 841.021 378.316 840.133 378.316H831.493C831.373 378.316 831.265 378.364 831.169 378.46C831.073 378.532 831.025 378.628 831.025 378.748V380.944H826.309ZM826.309 388V383.284H831.025V388H826.309Z" fill="white"/>
<path d="M586.89 423V412.92H596.088V414.054H588.024V417.386H594.506V418.534H588.024V421.866H596.088V423H586.89ZM599.443 423C599.135 423 598.85 422.925 598.589 422.776C598.337 422.617 598.132 422.412 597.973 422.16C597.824 421.899 597.749 421.614 597.749 421.306V421.194H598.897V421.306C598.897 421.455 598.948 421.586 599.051 421.698C599.163 421.801 599.294 421.852 599.443 421.852H604.315C604.464 421.852 604.59 421.801 604.693 421.698C604.805 421.586 604.861 421.455 604.861 421.306V420.06C604.861 419.911 604.805 419.785 604.693 419.682C604.59 419.57 604.464 419.514 604.315 419.514H599.443C599.135 419.514 598.85 419.439 598.589 419.29C598.337 419.131 598.132 418.926 597.973 418.674C597.824 418.413 597.749 418.128 597.749 417.82V416.574C597.749 416.266 597.824 415.986 597.973 415.734C598.132 415.473 598.337 415.267 598.589 415.118C598.85 414.959 599.135 414.88 599.443 414.88H604.315C604.632 414.88 604.917 414.959 605.169 415.118C605.43 415.267 605.636 415.473 605.785 415.734C605.944 415.986 606.023 416.266 606.023 416.574V416.686H604.861V416.574C604.861 416.425 604.805 416.299 604.693 416.196C604.59 416.084 604.464 416.028 604.315 416.028H599.443C599.294 416.028 599.163 416.084 599.051 416.196C598.948 416.299 598.897 416.425 598.897 416.574V417.82C598.897 417.969 598.948 418.1 599.051 418.212C599.163 418.315 599.294 418.366 599.443 418.366H604.315C604.632 418.366 604.917 418.445 605.169 418.604C605.43 418.753 605.636 418.959 605.785 419.22C605.944 419.472 606.023 419.752 606.023 420.06V421.306C606.023 421.614 605.944 421.899 605.785 422.16C605.636 422.412 605.43 422.617 605.169 422.776C604.917 422.925 604.632 423 604.315 423H599.443ZM609.391 423C609.073 423 608.784 422.925 608.523 422.776C608.271 422.617 608.07 422.412 607.921 422.16C607.771 421.899 607.697 421.614 607.697 421.306V412.22H608.845V414.88H612.359V416.028H608.845V421.306C608.845 421.455 608.896 421.586 608.999 421.698C609.111 421.801 609.241 421.852 609.391 421.852H612.359V423H609.391ZM615.385 423C615.077 423 614.792 422.925 614.531 422.776C614.279 422.617 614.074 422.412 613.915 422.16C613.766 421.899 613.691 421.614 613.691 421.306V416.574C613.691 416.266 613.766 415.986 613.915 415.734C614.074 415.473 614.279 415.267 614.531 415.118C614.792 414.959 615.077 414.88 615.385 414.88H620.257C620.574 414.88 620.859 414.959 621.111 415.118C621.372 415.267 621.578 415.473 621.727 415.734C621.886 415.986 621.965 416.266 621.965 416.574V421.306C621.965 421.614 621.886 421.899 621.727 422.16C621.578 422.412 621.372 422.617 621.111 422.776C620.859 422.925 620.574 423 620.257 423H615.385ZM615.385 421.852H620.257C620.406 421.852 620.532 421.801 620.635 421.698C620.747 421.586 620.803 421.455 620.803 421.306V416.574C620.803 416.425 620.747 416.299 620.635 416.196C620.532 416.084 620.406 416.028 620.257 416.028H615.385C615.236 416.028 615.105 416.084 614.993 416.196C614.89 416.299 614.839 416.425 614.839 416.574V421.306C614.839 421.455 614.89 421.586 614.993 421.698C615.105 421.801 615.236 421.852 615.385 421.852ZM625.036 426.22V425.058H630.104C630.254 425.058 630.38 425.002 630.482 424.89C630.594 424.787 630.65 424.661 630.65 424.512V423H625.232C624.924 423 624.64 422.925 624.378 422.776C624.126 422.617 623.921 422.412 623.762 422.16C623.613 421.899 623.538 421.614 623.538 421.306V414.908H624.686V421.306C624.686 421.455 624.738 421.586 624.84 421.698C624.952 421.801 625.083 421.852 625.232 421.852H630.104C630.254 421.852 630.38 421.801 630.482 421.698C630.594 421.586 630.65 421.455 630.65 421.306V414.908H631.798V424.512C631.798 424.829 631.724 425.114 631.574 425.366C631.425 425.627 631.22 425.833 630.958 425.982C630.706 426.141 630.422 426.22 630.104 426.22H625.036ZM639.331 423C639.023 423 638.738 422.925 638.477 422.776C638.225 422.617 638.019 422.412 637.861 422.16C637.711 421.899 637.637 421.614 637.637 421.306V412.22H638.785V421.306C638.785 421.455 638.836 421.586 638.939 421.698C639.051 421.801 639.181 421.852 639.331 421.852H640.703V423H639.331ZM642.141 423V414.88H643.289V423H642.141ZM642.141 413.368V412.22H643.289V413.368H642.141ZM646.971 423C646.663 423 646.379 422.925 646.117 422.776C645.865 422.617 645.66 422.412 645.501 422.16C645.352 421.899 645.277 421.614 645.277 421.306V421.194H646.425V421.306C646.425 421.455 646.477 421.586 646.579 421.698C646.691 421.801 646.822 421.852 646.971 421.852H651.843C651.993 421.852 652.119 421.801 652.221 421.698C652.333 421.586 652.389 421.455 652.389 421.306V420.06C652.389 419.911 652.333 419.785 652.221 419.682C652.119 419.57 651.993 419.514 651.843 419.514H646.971C646.663 419.514 646.379 419.439 646.117 419.29C645.865 419.131 645.66 418.926 645.501 418.674C645.352 418.413 645.277 418.128 645.277 417.82V416.574C645.277 416.266 645.352 415.986 645.501 415.734C645.66 415.473 645.865 415.267 646.117 415.118C646.379 414.959 646.663 414.88 646.971 414.88H651.843C652.161 414.88 652.445 414.959 652.697 415.118C652.959 415.267 653.164 415.473 653.313 415.734C653.472 415.986 653.551 416.266 653.551 416.574V416.686H652.389V416.574C652.389 416.425 652.333 416.299 652.221 416.196C652.119 416.084 651.993 416.028 651.843 416.028H646.971C646.822 416.028 646.691 416.084 646.579 416.196C646.477 416.299 646.425 416.425 646.425 416.574V417.82C646.425 417.969 646.477 418.1 646.579 418.212C646.691 418.315 646.822 418.366 646.971 418.366H651.843C652.161 418.366 652.445 418.445 652.697 418.604C652.959 418.753 653.164 418.959 653.313 419.22C653.472 419.472 653.551 419.752 653.551 420.06V421.306C653.551 421.614 653.472 421.899 653.313 422.16C653.164 422.412 652.959 422.617 652.697 422.776C652.445 422.925 652.161 423 651.843 423H646.971ZM656.919 423C656.602 423 656.312 422.925 656.051 422.776C655.799 422.617 655.598 422.412 655.449 422.16C655.3 421.899 655.225 421.614 655.225 421.306V412.22H656.373V414.88H659.887V416.028H656.373V421.306C656.373 421.455 656.424 421.586 656.527 421.698C656.639 421.801 656.77 421.852 656.919 421.852H659.887V423H656.919ZM662.913 423C662.605 423 662.321 422.925 662.059 422.776C661.807 422.617 661.602 422.412 661.443 422.16C661.294 421.899 661.219 421.614 661.219 421.306V416.574C661.219 416.266 661.294 415.986 661.443 415.734C661.602 415.473 661.807 415.267 662.059 415.118C662.321 414.959 662.605 414.88 662.913 414.88H667.785C668.103 414.88 668.387 414.959 668.639 415.118C668.901 415.267 669.106 415.473 669.255 415.734C669.414 415.986 669.493 416.266 669.493 416.574V421.306C669.493 421.614 669.414 421.899 669.255 422.16C669.106 422.412 668.901 422.617 668.639 422.776C668.387 422.925 668.103 423 667.785 423H662.913ZM662.913 421.852H667.785C667.935 421.852 668.061 421.801 668.163 421.698C668.275 421.586 668.331 421.455 668.331 421.306V416.574C668.331 416.425 668.275 416.299 668.163 416.196C668.061 416.084 667.935 416.028 667.785 416.028H662.913C662.764 416.028 662.633 416.084 662.521 416.196C662.419 416.299 662.367 416.425 662.367 416.574V421.306C662.367 421.455 662.419 421.586 662.521 421.698C662.633 421.801 662.764 421.852 662.913 421.852ZM675.329 426.22V414.88H681.909C682.217 414.88 682.497 414.959 682.749 415.118C683.01 415.267 683.216 415.473 683.365 415.734C683.524 415.986 683.603 416.266 683.603 416.574V421.306C683.603 421.614 683.524 421.899 683.365 422.16C683.216 422.412 683.01 422.617 682.749 422.776C682.497 422.925 682.217 423 681.909 423H676.477V426.22H675.329ZM677.037 421.852H681.909C682.058 421.852 682.184 421.801 682.287 421.698C682.399 421.586 682.455 421.455 682.455 421.306V416.574C682.455 416.425 682.399 416.299 682.287 416.196C682.184 416.084 682.058 416.028 681.909 416.028H677.037C676.888 416.028 676.757 416.084 676.645 416.196C676.533 416.299 676.477 416.425 676.477 416.574V421.306C676.477 421.455 676.533 421.586 676.645 421.698C676.757 421.801 676.888 421.852 677.037 421.852ZM686.572 423C686.264 423 685.979 422.925 685.718 422.776C685.466 422.617 685.261 422.412 685.102 422.16C684.953 421.899 684.878 421.614 684.878 421.306V418.366H691.99V416.574C691.99 416.425 691.934 416.299 691.822 416.196C691.719 416.084 691.593 416.028 691.444 416.028H684.878V414.88H691.444C691.761 414.88 692.046 414.959 692.298 415.118C692.559 415.267 692.765 415.473 692.914 415.734C693.073 415.986 693.152 416.266 693.152 416.574V423H686.572ZM686.572 421.852H691.99V419.514H686.026V421.306C686.026 421.455 686.077 421.586 686.18 421.698C686.292 421.801 686.423 421.852 686.572 421.852ZM694.81 423V416.574C694.81 416.266 694.885 415.986 695.034 415.734C695.193 415.473 695.398 415.267 695.65 415.118C695.912 414.959 696.196 414.88 696.504 414.88H701.068V416.028H696.504C696.355 416.028 696.224 416.084 696.112 416.196C696.01 416.299 695.958 416.425 695.958 416.574V423H694.81ZM703.948 423C703.64 423 703.356 422.925 703.094 422.776C702.842 422.617 702.637 422.412 702.478 422.16C702.329 421.899 702.254 421.614 702.254 421.306V418.366H709.366V416.574C709.366 416.425 709.31 416.299 709.198 416.196C709.096 416.084 708.97 416.028 708.82 416.028H702.254V414.88H708.82C709.138 414.88 709.422 414.959 709.674 415.118C709.936 415.267 710.141 415.473 710.29 415.734C710.449 415.986 710.528 416.266 710.528 416.574V423H703.948ZM703.948 421.852H709.366V419.514H703.402V421.306C703.402 421.455 703.454 421.586 703.556 421.698C703.668 421.801 703.799 421.852 703.948 421.852ZM718.057 423C717.74 423 717.451 422.925 717.189 422.776C716.937 422.617 716.737 422.412 716.587 422.16C716.438 421.899 716.363 421.614 716.363 421.306V412.22H717.511V414.88H721.025V416.028H717.511V421.306C717.511 421.455 717.563 421.586 717.665 421.698C717.777 421.801 717.908 421.852 718.057 421.852H721.025V423H718.057ZM724.08 423C723.772 423 723.487 422.925 723.226 422.776C722.974 422.617 722.768 422.412 722.61 422.16C722.46 421.899 722.386 421.614 722.386 421.306V414.88H723.534V421.306C723.534 421.455 723.585 421.586 723.688 421.698C723.8 421.801 723.93 421.852 724.08 421.852H728.952C729.101 421.852 729.232 421.801 729.344 421.698C729.456 421.586 729.512 421.455 729.512 421.306V414.88H730.66V421.306C730.66 421.614 730.58 421.899 730.422 422.16C730.272 422.412 730.067 422.617 729.806 422.776C729.554 422.925 729.269 423 728.952 423H724.08ZM736.508 426.22V414.88H743.088C743.396 414.88 743.676 414.959 743.928 415.118C744.19 415.267 744.395 415.473 744.544 415.734C744.703 415.986 744.782 416.266 744.782 416.574V421.306C744.782 421.614 744.703 421.899 744.544 422.16C744.395 422.412 744.19 422.617 743.928 422.776C743.676 422.925 743.396 423 743.088 423H737.656V426.22H736.508ZM738.216 421.852H743.088C743.238 421.852 743.364 421.801 743.466 421.698C743.578 421.586 743.634 421.455 743.634 421.306V416.574C743.634 416.425 743.578 416.299 743.466 416.196C743.364 416.084 743.238 416.028 743.088 416.028H738.216C738.067 416.028 737.936 416.084 737.824 416.196C737.712 416.299 737.656 416.425 737.656 416.574V421.306C737.656 421.455 737.712 421.586 737.824 421.698C737.936 421.801 738.067 421.852 738.216 421.852ZM746.057 423V416.574C746.057 416.266 746.132 415.986 746.281 415.734C746.44 415.473 746.645 415.267 746.897 415.118C747.159 414.959 747.443 414.88 747.751 414.88H752.315V416.028H747.751C747.602 416.028 747.471 416.084 747.359 416.196C747.257 416.299 747.205 416.425 747.205 416.574V423H746.057ZM755.181 423C754.873 423 754.589 422.925 754.327 422.776C754.075 422.617 753.87 422.412 753.711 422.16C753.562 421.899 753.487 421.614 753.487 421.306V416.574C753.487 416.266 753.562 415.986 753.711 415.734C753.87 415.473 754.075 415.267 754.327 415.118C754.589 414.959 754.873 414.88 755.181 414.88H760.053C760.371 414.88 760.655 414.959 760.907 415.118C761.169 415.267 761.374 415.473 761.523 415.734C761.682 415.986 761.761 416.266 761.761 416.574V421.306C761.761 421.614 761.682 421.899 761.523 422.16C761.374 422.412 761.169 422.617 760.907 422.776C760.655 422.925 760.371 423 760.053 423H755.181ZM755.181 421.852H760.053C760.203 421.852 760.329 421.801 760.431 421.698C760.543 421.586 760.599 421.455 760.599 421.306V416.574C760.599 416.425 760.543 416.299 760.431 416.196C760.329 416.084 760.203 416.028 760.053 416.028H755.181C755.032 416.028 754.901 416.084 754.789 416.196C754.687 416.299 754.635 416.425 754.635 416.574V421.306C754.635 421.455 754.687 421.586 754.789 421.698C754.901 421.801 755.032 421.852 755.181 421.852ZM756.945 414.068L757.435 412.122H758.541L758.065 414.068H756.945ZM763.391 423V422.986L766.779 418.87L763.391 414.894V414.88H764.903L767.535 417.96L770.181 414.88H771.679V414.894L768.291 418.87L771.693 422.986V423H770.181L767.535 419.752L764.903 423H763.391ZM773.448 423V414.88H774.596V423H773.448ZM773.448 413.368V412.22H774.596V413.368H773.448ZM776.668 423V414.88H787.392C787.71 414.88 787.994 414.959 788.246 415.118C788.508 415.267 788.713 415.473 788.862 415.734C789.012 415.986 789.086 416.266 789.086 416.574V423H787.952V416.574C787.952 416.425 787.896 416.299 787.784 416.196C787.672 416.084 787.542 416.028 787.392 416.028H784.018C783.869 416.028 783.738 416.084 783.626 416.196C783.524 416.299 783.472 416.425 783.472 416.574V423H782.31V416.574C782.31 416.425 782.254 416.299 782.142 416.196C782.04 416.084 781.914 416.028 781.764 416.028H778.376C778.227 416.028 778.096 416.084 777.984 416.196C777.882 416.299 777.83 416.425 777.83 416.574V423H776.668ZM792.3 423C791.992 423 791.707 422.925 791.446 422.776C791.194 422.617 790.988 422.412 790.83 422.16C790.68 421.899 790.606 421.614 790.606 421.306V418.366H797.718V416.574C797.718 416.425 797.662 416.299 797.55 416.196C797.447 416.084 797.321 416.028 797.172 416.028H790.606V414.88H797.172C797.489 414.88 797.774 414.959 798.026 415.118C798.287 415.267 798.492 415.473 798.642 415.734C798.8 415.986 798.88 416.266 798.88 416.574V423H792.3ZM792.3 421.852H797.718V419.514H791.754V421.306C791.754 421.455 791.805 421.586 791.908 421.698C792.02 421.801 792.15 421.852 792.3 421.852ZM804.729 423V414.88H815.453C815.77 414.88 816.055 414.959 816.307 415.118C816.568 415.267 816.774 415.473 816.923 415.734C817.072 415.986 817.147 416.266 817.147 416.574V423H816.013V416.574C816.013 416.425 815.957 416.299 815.845 416.196C815.733 416.084 815.602 416.028 815.453 416.028H812.079C811.93 416.028 811.799 416.084 811.687 416.196C811.584 416.299 811.533 416.425 811.533 416.574V423H810.371V416.574C810.371 416.425 810.315 416.299 810.203 416.196C810.1 416.084 809.974 416.028 809.825 416.028H806.437C806.288 416.028 806.157 416.084 806.045 416.196C805.942 416.299 805.891 416.425 805.891 416.574V423H804.729ZM818.666 423V414.88H819.814V423H818.666ZM818.666 413.368V412.22H819.814V413.368H818.666ZM823.497 423C823.189 423 822.904 422.925 822.643 422.776C822.391 422.617 822.185 422.412 822.027 422.16C821.877 421.899 821.803 421.614 821.803 421.306V421.194H822.951V421.306C822.951 421.455 823.002 421.586 823.105 421.698C823.217 421.801 823.347 421.852 823.497 421.852H828.369C828.518 421.852 828.644 421.801 828.747 421.698C828.859 421.586 828.915 421.455 828.915 421.306V420.06C828.915 419.911 828.859 419.785 828.747 419.682C828.644 419.57 828.518 419.514 828.369 419.514H823.497C823.189 419.514 822.904 419.439 822.643 419.29C822.391 419.131 822.185 418.926 822.027 418.674C821.877 418.413 821.803 418.128 821.803 417.82V416.574C821.803 416.266 821.877 415.986 822.027 415.734C822.185 415.473 822.391 415.267 822.643 415.118C822.904 414.959 823.189 414.88 823.497 414.88H828.369C828.686 414.88 828.971 414.959 829.223 415.118C829.484 415.267 829.689 415.473 829.839 415.734C829.997 415.986 830.077 416.266 830.077 416.574V416.686H828.915V416.574C828.915 416.425 828.859 416.299 828.747 416.196C828.644 416.084 828.518 416.028 828.369 416.028H823.497C823.347 416.028 823.217 416.084 823.105 416.196C823.002 416.299 822.951 416.425 822.951 416.574V417.82C822.951 417.969 823.002 418.1 823.105 418.212C823.217 418.315 823.347 418.366 823.497 418.366H828.369C828.686 418.366 828.971 418.445 829.223 418.604C829.484 418.753 829.689 418.959 829.839 419.22C829.997 419.472 830.077 419.752 830.077 420.06V421.306C830.077 421.614 829.997 421.899 829.839 422.16C829.689 422.412 829.484 422.617 829.223 422.776C828.971 422.925 828.686 423 828.369 423H823.497ZM831.736 423V414.88H832.884V423H831.736ZM831.736 413.368V412.22H832.884V413.368H831.736ZM836.608 423C836.3 423 836.016 422.925 835.754 422.776C835.502 422.617 835.297 422.412 835.138 422.16C834.989 421.899 834.914 421.614 834.914 421.306V416.574C834.914 416.266 834.989 415.986 835.138 415.734C835.297 415.473 835.502 415.267 835.754 415.118C836.016 414.959 836.3 414.88 836.608 414.88H841.48C841.798 414.88 842.082 414.959 842.334 415.118C842.596 415.267 842.801 415.473 842.95 415.734C843.109 415.986 843.188 416.266 843.188 416.574V421.306C843.188 421.614 843.109 421.899 842.95 422.16C842.801 422.412 842.596 422.617 842.334 422.776C842.082 422.925 841.798 423 841.48 423H836.608ZM836.608 421.852H841.48C841.63 421.852 841.756 421.801 841.858 421.698C841.97 421.586 842.026 421.455 842.026 421.306V416.574C842.026 416.425 841.97 416.299 841.858 416.196C841.756 416.084 841.63 416.028 841.48 416.028H836.608C836.459 416.028 836.328 416.084 836.216 416.196C836.114 416.299 836.062 416.425 836.062 416.574V421.306C836.062 421.455 836.114 421.586 836.216 421.698C836.328 421.801 836.459 421.852 836.608 421.852ZM838.372 414.068L838.862 412.122H839.968L839.492 414.068H838.372ZM844.93 423V414.88H851.51C851.818 414.88 852.098 414.959 852.35 415.118C852.611 415.267 852.816 415.473 852.966 415.734C853.124 415.986 853.204 416.266 853.204 416.574V423H852.056V416.574C852.056 416.425 852 416.299 851.888 416.196C851.785 416.084 851.659 416.028 851.51 416.028H846.638C846.488 416.028 846.358 416.084 846.246 416.196C846.134 416.299 846.078 416.425 846.078 416.574V423H844.93Z" fill="white"/>
<rect x="577.5" y="459" width="285" height="30" rx="6" fill="#2E2E2E"/>
<rect x="577.5" y="459" width="285" height="30" rx="6" stroke="#FF3C38"/>
<path d="M594.284 479V468.92H596.09L602.838 476.956V468.92H604.364V479H602.558L595.796 470.95V479H594.284ZM607.962 479C607.626 479 607.323 478.916 607.052 478.748C606.782 478.58 606.562 478.361 606.394 478.09C606.226 477.819 606.142 477.516 606.142 477.18V472.7C606.142 472.364 606.226 472.061 606.394 471.79C606.562 471.519 606.782 471.3 607.052 471.132C607.323 470.964 607.626 470.88 607.962 470.88H612.582C612.918 470.88 613.222 470.964 613.492 471.132C613.772 471.291 613.992 471.51 614.15 471.79C614.318 472.07 614.402 472.373 614.402 472.7V477.18C614.402 477.516 614.318 477.819 614.15 478.09C613.992 478.361 613.772 478.58 613.492 478.748C613.222 478.916 612.918 479 612.582 479H607.962ZM608.004 477.488H612.54C612.634 477.488 612.713 477.455 612.778 477.39C612.844 477.315 612.876 477.231 612.876 477.138V472.742C612.876 472.649 612.844 472.569 612.778 472.504C612.713 472.429 612.634 472.392 612.54 472.392H608.004C607.911 472.392 607.827 472.429 607.752 472.504C607.687 472.569 607.654 472.649 607.654 472.742V477.138C607.654 477.231 607.687 477.315 607.752 477.39C607.827 477.455 607.911 477.488 608.004 477.488ZM616.158 479V470.88H626.532C626.877 470.88 627.185 470.964 627.456 471.132C627.726 471.3 627.941 471.519 628.1 471.79C628.268 472.061 628.352 472.364 628.352 472.7V479H626.854V472.742C626.854 472.649 626.816 472.569 626.742 472.504C626.676 472.429 626.597 472.392 626.504 472.392H623.382C623.279 472.392 623.195 472.429 623.13 472.504C623.064 472.569 623.032 472.649 623.032 472.742V479H621.506V472.742C621.506 472.649 621.468 472.569 621.394 472.504C621.328 472.429 621.249 472.392 621.156 472.392H618.02C617.926 472.392 617.847 472.429 617.782 472.504C617.716 472.569 617.684 472.649 617.684 472.742V479H616.158ZM629.973 479V468.22H631.485V470.88H636.413C636.749 470.88 637.052 470.964 637.323 471.132C637.603 471.3 637.822 471.519 637.981 471.79C638.149 472.061 638.233 472.364 638.233 472.7V477.18C638.233 477.516 638.149 477.819 637.981 478.09C637.822 478.361 637.603 478.58 637.323 478.748C637.052 478.916 636.749 479 636.413 479H629.973ZM631.835 477.488H636.371C636.464 477.488 636.544 477.455 636.609 477.39C636.684 477.315 636.721 477.231 636.721 477.138V472.742C636.721 472.649 636.684 472.569 636.609 472.504C636.544 472.429 636.464 472.392 636.371 472.392H631.835C631.742 472.392 631.658 472.429 631.583 472.504C631.518 472.569 631.485 472.649 631.485 472.742V477.138C631.485 477.231 631.518 477.315 631.583 477.39C631.658 477.455 631.742 477.488 631.835 477.488ZM639.563 479V472.7C639.563 472.364 639.647 472.061 639.815 471.79C639.983 471.519 640.202 471.3 640.473 471.132C640.753 470.964 641.056 470.88 641.383 470.88H645.919V472.392H641.425C641.332 472.392 641.248 472.429 641.173 472.504C641.108 472.569 641.075 472.649 641.075 472.742V479H639.563ZM648.936 479C648.6 479 648.297 478.916 648.026 478.748C647.755 478.58 647.536 478.361 647.368 478.09C647.2 477.819 647.116 477.516 647.116 477.18V472.7C647.116 472.364 647.2 472.061 647.368 471.79C647.536 471.519 647.755 471.3 648.026 471.132C648.297 470.964 648.6 470.88 648.936 470.88H653.556C653.892 470.88 654.195 470.964 654.466 471.132C654.746 471.291 654.965 471.51 655.124 471.79C655.292 472.07 655.376 472.373 655.376 472.7V475.696H648.628V477.138C648.628 477.231 648.661 477.315 648.726 477.39C648.801 477.455 648.885 477.488 648.978 477.488H655.376V479H648.936ZM648.628 474.282H653.85V472.742C653.85 472.649 653.817 472.569 653.752 472.504C653.687 472.429 653.607 472.392 653.514 472.392H648.978C648.885 472.392 648.801 472.429 648.726 472.504C648.661 472.569 648.628 472.649 648.628 472.742V474.282Z" fill="#D1D5DB"/>
<rect x="577.5" y="501" width="285" height="30" rx="6" fill="#2E2E2E"/>
<rect x="577.5" y="501" width="285" height="30" rx="6" stroke="#FF3C38" stroke-linejoin="round"/>
<path d="M594.312 521V510.92H603.552V512.432H595.838V515.204H602.04V516.716H595.838V519.488H603.552V521H594.312ZM605.255 521V512.88H615.629C615.974 512.88 616.282 512.964 616.553 513.132C616.823 513.3 617.038 513.519 617.197 513.79C617.365 514.061 617.449 514.364 617.449 514.7V521H615.951V514.742C615.951 514.649 615.913 514.569 615.839 514.504C615.773 514.429 615.694 514.392 615.601 514.392H612.479C612.376 514.392 612.292 514.429 612.227 514.504C612.161 514.569 612.129 514.649 612.129 514.742V521H610.603V514.742C610.603 514.649 610.565 514.569 610.491 514.504C610.425 514.429 610.346 514.392 610.253 514.392H607.117C607.023 514.392 606.944 514.429 606.879 514.504C606.813 514.569 606.781 514.649 606.781 514.742V521H605.255ZM620.848 521C620.512 521 620.204 520.916 619.924 520.748C619.654 520.58 619.434 520.361 619.266 520.09C619.108 519.819 619.028 519.516 619.028 519.18V516.184H625.762V514.742C625.762 514.649 625.73 514.569 625.664 514.504C625.599 514.429 625.52 514.392 625.426 514.392H619.028V512.88H625.468C625.804 512.88 626.108 512.964 626.378 513.132C626.658 513.291 626.878 513.51 627.036 513.79C627.204 514.07 627.288 514.373 627.288 514.7V521H620.848ZM620.89 519.488H625.762V517.598H620.54V519.138C620.54 519.231 620.573 519.315 620.638 519.39C620.713 519.455 620.797 519.488 620.89 519.488ZM629.029 521V512.88H630.541V521H629.029ZM629.029 511.732V510.22H630.541V511.732H629.029ZM634.301 521C633.965 521 633.661 520.916 633.391 520.748C633.12 520.58 632.901 520.361 632.733 520.09C632.565 519.819 632.481 519.516 632.481 519.18V510.22H633.993V519.138C633.993 519.231 634.025 519.315 634.091 519.39C634.165 519.455 634.249 519.488 634.343 519.488H635.813V521H634.301Z" fill="#D1D5DB"/>
<rect x="577.5" y="543" width="285" height="90" rx="6" fill="#2E2E2E"/>
<rect x="577.5" y="543" width="285" height="90" rx="6" stroke="#FF3C38" stroke-linejoin="round"/>
<path d="M594.284 563V552.92H596.09L599.996 557.568L603.888 552.92H605.708V563H604.182V554.95L599.996 559.934L595.796 554.95V563H594.284ZM609.302 563C608.966 563 608.663 562.916 608.392 562.748C608.122 562.58 607.902 562.361 607.734 562.09C607.566 561.819 607.482 561.516 607.482 561.18V556.7C607.482 556.364 607.566 556.061 607.734 555.79C607.902 555.519 608.122 555.3 608.392 555.132C608.663 554.964 608.966 554.88 609.302 554.88H613.922C614.258 554.88 614.562 554.964 614.832 555.132C615.112 555.291 615.332 555.51 615.49 555.79C615.658 556.07 615.742 556.373 615.742 556.7V559.696H608.994V561.138C608.994 561.231 609.027 561.315 609.092 561.39C609.167 561.455 609.251 561.488 609.344 561.488H615.742V563H609.302ZM608.994 558.282H614.216V556.742C614.216 556.649 614.184 556.569 614.118 556.504C614.053 556.429 613.974 556.392 613.88 556.392H609.344C609.251 556.392 609.167 556.429 609.092 556.504C609.027 556.569 608.994 556.649 608.994 556.742V558.282ZM617.498 563V554.88H623.938C624.274 554.88 624.577 554.964 624.848 555.132C625.128 555.3 625.347 555.519 625.506 555.79C625.674 556.061 625.758 556.364 625.758 556.7V563H624.246V556.742C624.246 556.649 624.208 556.569 624.134 556.504C624.068 556.429 623.989 556.392 623.896 556.392H619.36C619.266 556.392 619.182 556.429 619.108 556.504C619.042 556.569 619.01 556.649 619.01 556.742V563H617.498ZM629.166 563C628.83 563 628.527 562.916 628.256 562.748C627.985 562.58 627.766 562.361 627.598 562.09C627.43 561.819 627.346 561.516 627.346 561.18V560.97H628.858V561.138C628.858 561.231 628.891 561.315 628.956 561.39C629.031 561.455 629.115 561.488 629.208 561.488H633.744C633.837 561.488 633.917 561.455 633.982 561.39C634.047 561.315 634.08 561.231 634.08 561.138V560.046C634.08 559.953 634.047 559.873 633.982 559.808C633.917 559.733 633.837 559.696 633.744 559.696H629.166C628.83 559.696 628.527 559.617 628.256 559.458C627.985 559.29 627.766 559.071 627.598 558.8C627.43 558.52 627.346 558.212 627.346 557.876V556.7C627.346 556.364 627.43 556.061 627.598 555.79C627.766 555.519 627.985 555.3 628.256 555.132C628.527 554.964 628.83 554.88 629.166 554.88H633.786C634.122 554.88 634.425 554.964 634.696 555.132C634.976 555.3 635.195 555.519 635.354 555.79C635.522 556.061 635.606 556.364 635.606 556.7V556.91H634.08V556.742C634.08 556.649 634.047 556.569 633.982 556.504C633.917 556.429 633.837 556.392 633.744 556.392H629.208C629.115 556.392 629.031 556.429 628.956 556.504C628.891 556.569 628.858 556.649 628.858 556.742V557.834C628.858 557.927 628.891 558.011 628.956 558.086C629.031 558.151 629.115 558.184 629.208 558.184H633.786C634.122 558.184 634.425 558.268 634.696 558.436C634.976 558.595 635.195 558.814 635.354 559.094C635.522 559.365 635.606 559.668 635.606 560.004V561.18C635.606 561.516 635.522 561.819 635.354 562.09C635.195 562.361 634.976 562.58 634.696 562.748C634.425 562.916 634.122 563 633.786 563H629.166ZM639.1 563C638.764 563 638.456 562.916 638.176 562.748C637.905 562.58 637.686 562.361 637.518 562.09C637.359 561.819 637.28 561.516 637.28 561.18V558.184H644.014V556.742C644.014 556.649 643.981 556.569 643.916 556.504C643.85 556.429 643.771 556.392 643.678 556.392H637.28V554.88H643.72C644.056 554.88 644.359 554.964 644.63 555.132C644.91 555.291 645.129 555.51 645.288 555.79C645.456 556.07 645.54 556.373 645.54 556.7V563H639.1ZM639.142 561.488H644.014V559.598H638.792V561.138C638.792 561.231 638.824 561.315 638.89 561.39C638.964 561.455 639.048 561.488 639.142 561.488ZM643.934 566.22V564.694H647.364C647.458 564.694 647.537 564.661 647.602 564.596C647.677 564.531 647.714 564.451 647.714 564.358V554.88H649.226V564.4C649.226 564.736 649.142 565.039 648.974 565.31C648.816 565.59 648.596 565.809 648.316 565.968C648.046 566.136 647.742 566.22 647.406 566.22H643.934ZM647.714 553.732V552.22H649.226V553.732H647.714ZM652.538 563C652.202 563 651.899 562.916 651.628 562.748C651.358 562.58 651.138 562.361 650.97 562.09C650.802 561.819 650.718 561.516 650.718 561.18V556.7C650.718 556.364 650.802 556.061 650.97 555.79C651.138 555.519 651.358 555.3 651.628 555.132C651.899 554.964 652.202 554.88 652.538 554.88H657.158C657.494 554.88 657.798 554.964 658.068 555.132C658.348 555.291 658.568 555.51 658.726 555.79C658.894 556.07 658.978 556.373 658.978 556.7V559.696H652.23V561.138C652.23 561.231 652.263 561.315 652.328 561.39C652.403 561.455 652.487 561.488 652.58 561.488H658.978V563H652.538ZM652.23 558.282H657.452V556.742C657.452 556.649 657.42 556.569 657.354 556.504C657.289 556.429 657.21 556.392 657.116 556.392H652.58C652.487 556.392 652.403 556.429 652.328 556.504C652.263 556.569 652.23 556.649 652.23 556.742V558.282Z" fill="#D1D5DB"/>
<rect x="682.5" y="645.5" width="75" height="30" rx="7.5" fill="#FF3C38"/>
<rect x="682.5" y="645.5" width="75" height="30" rx="7.5" stroke="#FF3C38"/>
<path d="M698.811 665V656.36H706.731V657.656H700.119V660.032H705.435V661.328H700.119V663.704H706.731V665H698.811ZM707.951 665V658.04H713.471C713.759 658.04 714.019 658.112 714.251 658.256C714.491 658.4 714.679 658.588 714.815 658.82C714.959 659.052 715.031 659.312 715.031 659.6V665H713.735V659.636C713.735 659.556 713.703 659.488 713.639 659.432C713.583 659.368 713.515 659.336 713.435 659.336H709.547C709.467 659.336 709.395 659.368 709.331 659.432C709.275 659.488 709.247 659.556 709.247 659.636V665H707.951ZM719.75 665L715.91 658.04H717.41L720.398 663.536L723.386 658.04H724.886L721.046 665H719.75ZM725.81 665V658.04H727.106V665H725.81ZM725.81 657.056V655.76H727.106V657.056H725.81ZM729.69 665C729.402 665 729.138 664.928 728.898 664.784C728.666 664.64 728.478 664.452 728.334 664.22C728.198 663.988 728.13 663.728 728.13 663.44V660.872H733.902V659.636C733.902 659.556 733.874 659.488 733.818 659.432C733.762 659.368 733.694 659.336 733.614 659.336H728.13V658.04H733.65C733.938 658.04 734.198 658.112 734.43 658.256C734.67 658.392 734.858 658.58 734.994 658.82C735.138 659.06 735.21 659.32 735.21 659.6V665H729.69ZM729.726 663.704H733.902V662.084H729.426V663.404C729.426 663.484 729.454 663.556 729.51 663.62C729.574 663.676 729.646 663.704 729.726 663.704ZM736.31 665V659.6C736.31 659.312 736.382 659.052 736.526 658.82C736.67 658.588 736.858 658.4 737.09 658.256C737.33 658.112 737.59 658.04 737.87 658.04H741.758V659.336H737.906C737.826 659.336 737.754 659.368 737.69 659.432C737.634 659.488 737.606 659.556 737.606 659.636V665H736.31Z" fill="white"/>
<g clip-path="url(#clip3_1584_1917)">
<path d="M688 716C679.16 716 672 723.16 672 732C672 739.08 676.58 745.06 682.94 747.18C683.74 747.32 684.04 746.84 684.04 746.42C684.04 746.04 684.02 744.78 684.02 743.44C680 744.18 678.96 742.46 678.64 741.56C678.46 741.1 677.68 739.68 677 739.3C676.44 739 675.64 738.26 676.98 738.24C678.24 738.22 679.14 739.4 679.44 739.88C680.88 742.3 683.18 741.62 684.1 741.2C684.24 740.16 684.66 739.46 685.12 739.06C681.56 738.66 677.84 737.28 677.84 731.16C677.84 729.42 678.46 727.98 679.48 726.86C679.32 726.46 678.76 724.82 679.64 722.62C679.64 722.62 680.98 722.2 684.04 724.26C685.32 723.9 686.68 723.72 688.04 723.72C689.4 723.72 690.76 723.9 692.04 724.26C695.1 722.18 696.44 722.62 696.44 722.62C697.32 724.82 696.76 726.46 696.6 726.86C697.62 727.98 698.24 729.4 698.24 731.16C698.24 737.3 694.5 738.66 690.94 739.06C691.52 739.56 692.02 740.52 692.02 742.02C692.02 744.16 692 745.88 692 746.42C692 746.84 692.3 747.34 693.1 747.18C696.277 746.109 699.037 744.067 700.993 741.344C702.948 738.621 704 735.353 704 732C704 723.16 696.84 716 688 716Z" fill="white"/>
</g>
<g clip-path="url(#clip4_1584_1917)">
<path d="M736 718.292C736 717.026 737.052 716 738.35 716H765.65C766.948 716 768 717.026 768 718.292V745.708C768 746.974 766.948 748 765.65 748H738.35C737.052 748 736 746.974 736 745.708V718.292ZM745.886 742.788V728.338H741.084V742.788H745.886ZM743.486 726.364C745.16 726.364 746.202 725.256 746.202 723.868C746.172 722.45 745.162 721.372 743.518 721.372C741.874 721.372 740.8 722.452 740.8 723.868C740.8 725.256 741.842 726.364 743.454 726.364H743.486ZM753.302 742.788V734.718C753.302 734.286 753.334 733.854 753.462 733.546C753.808 732.684 754.598 731.79 755.926 731.79C757.664 731.79 758.358 733.114 758.358 735.058V742.788H763.16V734.5C763.16 730.06 760.792 727.996 757.632 727.996C755.084 727.996 753.942 729.396 753.302 730.382V730.432H753.27L753.302 730.382V728.338H748.502C748.562 729.694 748.502 742.788 748.502 742.788H753.302Z" fill="white"/>
</g>
<rect width="1440" height="31" transform="translate(0 993)" fill="#4B5563"/>
<path d="M639.137 1013C638.849 1013 638.585 1012.93 638.345 1012.8C638.113 1012.65 637.925 1012.46 637.781 1012.23C637.645 1011.99 637.577 1011.73 637.577 1011.44V1005.92C637.577 1005.63 637.645 1005.37 637.781 1005.14C637.925 1004.9 638.113 1004.71 638.345 1004.58C638.585 1004.43 638.849 1004.36 639.137 1004.36H646.193V1005.66H639.317C639.189 1005.66 639.081 1005.7 638.993 1005.79C638.913 1005.87 638.873 1005.97 638.873 1006.1V1011.26C638.873 1011.39 638.913 1011.5 638.993 1011.58C639.081 1011.66 639.189 1011.7 639.317 1011.7H646.193V1013H639.137ZM649.184 1013C648.896 1013 648.636 1012.93 648.404 1012.78C648.172 1012.64 647.984 1012.45 647.84 1012.22C647.696 1011.99 647.624 1011.73 647.624 1011.44V1007.6C647.624 1007.31 647.696 1007.05 647.84 1006.82C647.984 1006.59 648.172 1006.4 648.404 1006.26C648.636 1006.11 648.896 1006.04 649.184 1006.04H653.144C653.432 1006.04 653.692 1006.11 653.924 1006.26C654.164 1006.39 654.352 1006.58 654.488 1006.82C654.632 1007.06 654.704 1007.32 654.704 1007.6V1011.44C654.704 1011.73 654.632 1011.99 654.488 1012.22C654.352 1012.45 654.164 1012.64 653.924 1012.78C653.692 1012.93 653.432 1013 653.144 1013H649.184ZM649.22 1011.7H653.108C653.188 1011.7 653.256 1011.68 653.312 1011.62C653.368 1011.56 653.396 1011.48 653.396 1011.4V1007.64C653.396 1007.56 653.368 1007.49 653.312 1007.43C653.256 1007.37 653.188 1007.34 653.108 1007.34H649.22C649.14 1007.34 649.068 1007.37 649.004 1007.43C648.948 1007.49 648.92 1007.56 648.92 1007.64V1011.4C648.92 1011.48 648.948 1011.56 649.004 1011.62C649.068 1011.68 649.14 1011.7 649.22 1011.7ZM657.397 1013C657.109 1013 656.845 1012.93 656.605 1012.8C656.373 1012.65 656.185 1012.46 656.041 1012.22C655.905 1011.98 655.837 1011.72 655.837 1011.44V1007.6C655.837 1007.31 655.905 1007.05 656.041 1006.82C656.185 1006.59 656.373 1006.4 656.605 1006.26C656.845 1006.11 657.109 1006.04 657.397 1006.04H661.621V1003.76H662.917V1013H657.397ZM657.445 1011.7H661.333C661.413 1011.7 661.481 1011.68 661.537 1011.62C661.593 1011.56 661.621 1011.48 661.621 1011.4V1007.64C661.621 1007.56 661.593 1007.49 661.537 1007.43C661.481 1007.37 661.413 1007.34 661.333 1007.34H657.445C657.365 1007.34 657.293 1007.37 657.229 1007.43C657.173 1007.49 657.145 1007.56 657.145 1007.64V1011.4C657.145 1011.48 657.173 1011.56 657.229 1011.62C657.293 1011.68 657.365 1011.7 657.445 1011.7ZM665.731 1013C665.443 1013 665.183 1012.93 664.951 1012.78C664.719 1012.64 664.531 1012.45 664.387 1012.22C664.243 1011.99 664.171 1011.73 664.171 1011.44V1007.6C664.171 1007.31 664.243 1007.05 664.387 1006.82C664.531 1006.59 664.719 1006.4 664.951 1006.26C665.183 1006.11 665.443 1006.04 665.731 1006.04H669.691C669.979 1006.04 670.239 1006.11 670.471 1006.26C670.711 1006.39 670.899 1006.58 671.035 1006.82C671.179 1007.06 671.251 1007.32 671.251 1007.6V1010.17H665.467V1011.4C665.467 1011.48 665.495 1011.56 665.551 1011.62C665.615 1011.68 665.687 1011.7 665.767 1011.7H671.251V1013H665.731ZM665.467 1008.96H669.943V1007.64C669.943 1007.56 669.915 1007.49 669.859 1007.43C669.803 1007.37 669.735 1007.34 669.655 1007.34H665.767C665.687 1007.34 665.615 1007.37 665.551 1007.43C665.495 1007.49 665.467 1007.56 665.467 1007.64V1008.96ZM676.476 1013V1003.76H677.772V1006.04H681.996C682.284 1006.04 682.544 1006.11 682.776 1006.26C683.016 1006.4 683.204 1006.59 683.34 1006.82C683.484 1007.05 683.556 1007.31 683.556 1007.6V1011.44C683.556 1011.73 683.484 1011.99 683.34 1012.22C683.204 1012.45 683.016 1012.64 682.776 1012.78C682.544 1012.93 682.284 1013 681.996 1013H676.476ZM678.072 1011.7H681.96C682.04 1011.7 682.108 1011.68 682.164 1011.62C682.228 1011.56 682.26 1011.48 682.26 1011.4V1007.64C682.26 1007.56 682.228 1007.49 682.164 1007.43C682.108 1007.37 682.04 1007.34 681.96 1007.34H678.072C677.992 1007.34 677.92 1007.37 677.856 1007.43C677.8 1007.49 677.772 1007.56 677.772 1007.64V1011.4C677.772 1011.48 677.8 1011.56 677.856 1011.62C677.92 1011.68 677.992 1011.7 678.072 1011.7ZM685.799 1015.66V1014.36H690.059C690.139 1014.36 690.207 1014.32 690.263 1014.26C690.327 1014.2 690.359 1014.14 690.359 1014.06V1013H686.135C685.855 1013 685.595 1012.93 685.355 1012.8C685.115 1012.65 684.923 1012.46 684.779 1012.22C684.643 1011.98 684.575 1011.72 684.575 1011.44V1006.06H685.871V1011.4C685.871 1011.48 685.899 1011.56 685.955 1011.62C686.019 1011.68 686.091 1011.7 686.171 1011.7H690.059C690.139 1011.7 690.207 1011.68 690.263 1011.62C690.327 1011.56 690.359 1011.48 690.359 1011.4V1006.06H691.655V1014.1C691.655 1014.39 691.583 1014.65 691.439 1014.88C691.303 1015.12 691.115 1015.31 690.875 1015.45C690.643 1015.59 690.383 1015.66 690.095 1015.66H685.799ZM696.919 1013V1004.36H698.467L701.815 1008.34L705.151 1004.36H706.711V1013H705.403V1006.1L701.815 1010.37L698.215 1006.1V1013H696.919ZM709.792 1013C709.504 1013 709.244 1012.93 709.012 1012.78C708.78 1012.64 708.592 1012.45 708.448 1012.22C708.304 1011.99 708.232 1011.73 708.232 1011.44V1007.6C708.232 1007.31 708.304 1007.05 708.448 1006.82C708.592 1006.59 708.78 1006.4 709.012 1006.26C709.244 1006.11 709.504 1006.04 709.792 1006.04H713.752C714.04 1006.04 714.3 1006.11 714.532 1006.26C714.772 1006.39 714.96 1006.58 715.096 1006.82C715.24 1007.06 715.312 1007.32 715.312 1007.6V1011.44C715.312 1011.73 715.24 1011.99 715.096 1012.22C714.96 1012.45 714.772 1012.64 714.532 1012.78C714.3 1012.93 714.04 1013 713.752 1013H709.792ZM709.828 1011.7H713.716C713.796 1011.7 713.864 1011.68 713.92 1011.62C713.976 1011.56 714.004 1011.48 714.004 1011.4V1007.64C714.004 1007.56 713.976 1007.49 713.92 1007.43C713.864 1007.37 713.796 1007.34 713.716 1007.34H709.828C709.748 1007.34 709.676 1007.37 709.612 1007.43C709.556 1007.49 709.528 1007.56 709.528 1007.64V1011.4C709.528 1011.48 709.556 1011.56 709.612 1011.62C709.676 1011.68 709.748 1011.7 709.828 1011.7ZM716.605 1013V1007.6C716.605 1007.31 716.677 1007.05 716.821 1006.82C716.965 1006.59 717.153 1006.4 717.385 1006.26C717.625 1006.11 717.885 1006.04 718.165 1006.04H722.053V1007.34H718.201C718.121 1007.34 718.049 1007.37 717.985 1007.43C717.929 1007.49 717.901 1007.56 717.901 1007.64V1013H716.605ZM724.58 1013C724.292 1013 724.032 1012.93 723.8 1012.78C723.568 1012.64 723.38 1012.45 723.236 1012.22C723.092 1011.99 723.02 1011.73 723.02 1011.44V1007.6C723.02 1007.31 723.092 1007.05 723.236 1006.82C723.38 1006.59 723.568 1006.4 723.8 1006.26C724.032 1006.11 724.292 1006.04 724.58 1006.04H728.54C728.828 1006.04 729.088 1006.11 729.32 1006.26C729.56 1006.39 729.748 1006.58 729.884 1006.82C730.028 1007.06 730.1 1007.32 730.1 1007.6V1011.44C730.1 1011.73 730.028 1011.99 729.884 1012.22C729.748 1012.45 729.56 1012.64 729.32 1012.78C729.088 1012.93 728.828 1013 728.54 1013H724.58ZM724.616 1011.7H728.504C728.584 1011.7 728.652 1011.68 728.708 1011.62C728.764 1011.56 728.792 1011.48 728.792 1011.4V1007.64C728.792 1007.56 728.764 1007.49 728.708 1007.43C728.652 1007.37 728.584 1007.34 728.504 1007.34H724.616C724.536 1007.34 724.464 1007.37 724.4 1007.43C724.344 1007.49 724.316 1007.56 724.316 1007.64V1011.4C724.316 1011.48 724.344 1011.56 724.4 1011.62C724.464 1011.68 724.536 1011.7 724.616 1011.7ZM731.37 1013V1006.04H736.89C737.178 1006.04 737.438 1006.11 737.67 1006.26C737.91 1006.4 738.098 1006.59 738.234 1006.82C738.378 1007.05 738.45 1007.31 738.45 1007.6V1013H737.154V1007.64C737.154 1007.56 737.122 1007.49 737.058 1007.43C737.002 1007.37 736.934 1007.34 736.854 1007.34H732.966C732.886 1007.34 732.814 1007.37 732.75 1007.43C732.694 1007.49 732.666 1007.56 732.666 1007.64V1013H731.37ZM739.942 1013V1006.04H741.238V1013H739.942ZM739.942 1005.06V1003.76H741.238V1005.06H739.942ZM746.564 1013V1005.92C746.564 1005.63 746.632 1005.37 746.768 1005.14C746.912 1004.9 747.1 1004.71 747.332 1004.58C747.572 1004.43 747.836 1004.36 748.124 1004.36H753.632C753.92 1004.36 754.184 1004.43 754.424 1004.58C754.664 1004.71 754.852 1004.9 754.988 1005.14C755.132 1005.37 755.204 1005.63 755.204 1005.92V1013H753.896V1009.98H747.86V1013H746.564ZM747.86 1008.68H753.896V1005.96C753.896 1005.88 753.868 1005.81 753.812 1005.75C753.756 1005.69 753.688 1005.66 753.608 1005.66H748.16C748.08 1005.66 748.008 1005.69 747.944 1005.75C747.888 1005.81 747.86 1005.88 747.86 1005.96V1008.68ZM757.855 1015.75V1014.44H762.115C762.195 1014.44 762.263 1014.41 762.319 1014.34C762.383 1014.29 762.415 1014.22 762.415 1014.14V1013H758.191C757.911 1013 757.651 1012.93 757.411 1012.8C757.171 1012.65 756.979 1012.46 756.835 1012.22C756.699 1011.98 756.631 1011.72 756.631 1011.44V1007.6C756.631 1007.31 756.703 1007.05 756.847 1006.82C756.991 1006.59 757.179 1006.4 757.411 1006.26C757.651 1006.11 757.911 1006.04 758.191 1006.04H762.151C762.439 1006.04 762.699 1006.11 762.931 1006.26C763.171 1006.4 763.359 1006.59 763.495 1006.82C763.639 1007.05 763.711 1007.31 763.711 1007.6V1014.19C763.711 1014.48 763.639 1014.74 763.495 1014.97C763.359 1015.21 763.171 1015.4 762.931 1015.53C762.699 1015.68 762.439 1015.75 762.151 1015.75H757.855ZM758.227 1011.7H762.115C762.195 1011.7 762.263 1011.68 762.319 1011.62C762.383 1011.56 762.415 1011.48 762.415 1011.4V1007.64C762.415 1007.56 762.383 1007.49 762.319 1007.43C762.263 1007.37 762.195 1007.34 762.115 1007.34H758.227C758.147 1007.34 758.075 1007.37 758.011 1007.43C757.955 1007.49 757.927 1007.56 757.927 1007.64V1011.4C757.927 1011.48 757.955 1011.56 758.011 1011.62C758.075 1011.68 758.147 1011.7 758.227 1011.7ZM766.462 1013C766.174 1013 765.91 1012.93 765.67 1012.78C765.438 1012.64 765.25 1012.45 765.106 1012.22C764.97 1011.99 764.902 1011.73 764.902 1011.44V1006.04H766.198V1011.4C766.198 1011.48 766.226 1011.56 766.282 1011.62C766.346 1011.68 766.418 1011.7 766.498 1011.7H770.386C770.466 1011.7 770.534 1011.68 770.59 1011.62C770.654 1011.56 770.686 1011.48 770.686 1011.4V1006.04H771.982V1011.44C771.982 1011.73 771.91 1011.99 771.766 1012.22C771.63 1012.45 771.442 1012.64 771.202 1012.78C770.97 1012.93 770.71 1013 770.422 1013H766.462ZM773.474 1013V1006.04H774.77V1013H773.474ZM773.474 1005.06V1003.76H774.77V1005.06H773.474ZM777.993 1013C777.705 1013 777.445 1012.93 777.213 1012.78C776.981 1012.64 776.793 1012.45 776.649 1012.22C776.505 1011.99 776.433 1011.73 776.433 1011.44V1003.76H777.729V1011.4C777.729 1011.48 777.757 1011.56 777.813 1011.62C777.877 1011.68 777.949 1011.7 778.029 1011.7H779.289V1013H777.993ZM781.936 1013C781.648 1013 781.388 1012.93 781.156 1012.78C780.924 1012.64 780.736 1012.45 780.592 1012.22C780.448 1011.99 780.376 1011.73 780.376 1011.44V1007.6C780.376 1007.31 780.448 1007.05 780.592 1006.82C780.736 1006.59 780.924 1006.4 781.156 1006.26C781.388 1006.11 781.648 1006.04 781.936 1006.04H785.896C786.184 1006.04 786.444 1006.11 786.676 1006.26C786.916 1006.39 787.104 1006.58 787.24 1006.82C787.384 1007.06 787.456 1007.32 787.456 1007.6V1010.17H781.672V1011.4C781.672 1011.48 781.7 1011.56 781.756 1011.62C781.82 1011.68 781.892 1011.7 781.972 1011.7H787.456V1013H781.936ZM781.672 1008.96H786.148V1007.64C786.148 1007.56 786.12 1007.49 786.064 1007.43C786.008 1007.37 785.94 1007.34 785.86 1007.34H781.972C781.892 1007.34 781.82 1007.37 781.756 1007.43C781.7 1007.49 781.672 1007.56 781.672 1007.64V1008.96ZM788.866 1013V1007.6C788.866 1007.31 788.938 1007.05 789.082 1006.82C789.226 1006.59 789.414 1006.4 789.646 1006.26C789.886 1006.11 790.146 1006.04 790.426 1006.04H794.314V1007.34H790.462C790.382 1007.34 790.31 1007.37 790.246 1007.43C790.19 1007.49 790.162 1007.56 790.162 1007.64V1013H788.866ZM796.947 1013C796.659 1013 796.395 1012.93 796.155 1012.78C795.923 1012.64 795.735 1012.45 795.591 1012.22C795.455 1011.99 795.387 1011.73 795.387 1011.44V1008.87H801.159V1007.64C801.159 1007.56 801.131 1007.49 801.075 1007.43C801.019 1007.37 800.951 1007.34 800.871 1007.34H795.387V1006.04H800.907C801.195 1006.04 801.455 1006.11 801.687 1006.26C801.927 1006.39 802.115 1006.58 802.251 1006.82C802.395 1007.06 802.467 1007.32 802.467 1007.6V1013H796.947ZM796.983 1011.7H801.159V1010.08H796.683V1011.4C796.683 1011.48 796.711 1011.56 796.767 1011.62C796.831 1011.68 796.903 1011.7 796.983 1011.7Z" fill="white"/>
</g>
<defs>
<filter id="filter0_d_1584_1917" x="166.144" y="11.5" width="49.1914" height="49.1913" filterUnits="userSpaceOnUse" color-interpolation-filters="sRGB">
<feFlood flood-opacity="0" result="BackgroundImageFix"/>
<feColorMatrix in="SourceAlpha" type="matrix" values="0 0 0 0 0 0 0 0 0 0 0 0 0 0 0 0 0 0 127 0" result="hardAlpha"/>
<feOffset dx="2" dy="2"/>
<feGaussianBlur stdDeviation="2"/>
<feComposite in2="hardAlpha" operator="out"/>
<feColorMatrix type="matrix" values="0 0 0 0 1 0 0 0 0 1 0 0 0 0 1 0 0 0 0.25 0"/>
<feBlend mode="normal" in2="BackgroundImageFix" result="effect1_dropShadow_1584_1917"/>
<feBlend mode="normal" in="SourceGraphic" in2="effect1_dropShadow_1584_1917" result="shape"/>
</filter>
<filter id="filter1_n_1584_1917" x="162.62" y="16.4163" width="52.2393" height="23.1005" filterUnits="userSpaceOnUse" color-interpolation-filters="sRGB">
<feFlood flood-opacity="0" result="BackgroundImageFix"/>
<feBlend mode="normal" in="SourceGraphic" in2="BackgroundImageFix" result="shape"/>
<feTurbulence type="fractalNoise" baseFrequency="2 2" stitchTiles="stitch" numOctaves="3" result="noise" seed="1433" />
<feColorMatrix in="noise" type="luminanceToAlpha" result="alphaNoise" />
<feComponentTransfer in="alphaNoise" result="coloredNoise1">
<feFuncA type="discrete" tableValues="1 1 1 1 1 1 1 1 1 1 1 1 1 1 1 1 1 1 1 1 1 1 1 1 1 1 1 1 1 1 1 1 1 1 1 1 1 1 1 1 1 1 1 1 1 1 1 1 1 1 1 0 0 0 0 0 0 0 0 0 0 0 0 0 0 0 0 0 0 0 0 0 0 0 0 0 0 0 0 0 0 0 0 0 0 0 0 0 0 0 0 0 0 0 0 0 0 0 0 0 "/>
</feComponentTransfer>
<feComposite operator="in" in2="shape" in="coloredNoise1" result="noise1Clipped" />
<feFlood flood-color="rgba(0, 0, 0, 0.25)" result="color1Flood" />
<feComposite operator="in" in2="noise1Clipped" in="color1Flood" result="color1" />
<feMerge result="effect1_noise_1584_1917">
<feMergeNode in="shape" />
<feMergeNode in="color1" />
</feMerge>
</filter>
<filter id="filter2_d_1584_1917" x="165.144" y="17.5" width="13.019" height="13" filterUnits="userSpaceOnUse" color-interpolation-filters="sRGB">
<feFlood flood-opacity="0" result="BackgroundImageFix"/>
<feColorMatrix in="SourceAlpha" type="matrix" values="0 0 0 0 0 0 0 0 0 0 0 0 0 0 0 0 0 0 127 0" result="hardAlpha"/>
<feOffset dx="1" dy="1"/>
<feGaussianBlur stdDeviation="2"/>
<feComposite in2="hardAlpha" operator="out"/>
<feColorMatrix type="matrix" values="0 0 0 0 1 0 0 0 0 1 0 0 0 0 1 0 0 0 0.5 0"/>
<feBlend mode="normal" in2="BackgroundImageFix" result="effect1_dropShadow_1584_1917"/>
<feBlend mode="normal" in="SourceGraphic" in2="effect1_dropShadow_1584_1917" result="shape"/>
</filter>
<clipPath id="clip0_1584_1917">
<rect width="1440" height="1024" fill="white"/>
</clipPath>
<clipPath id="clip1_1584_1917">
<rect width="20" height="20" fill="white" transform="translate(1230.36 25)"/>
</clipPath>
<clipPath id="clip2_1584_1917">
<rect width="15" height="15" fill="white" transform="matrix(-1 0 0 -1 1273.36 42.5)"/>
</clipPath>
<clipPath id="clip3_1584_1917">
<rect width="32" height="32" fill="white" transform="translate(672 716)"/>
</clipPath>
<clipPath id="clip4_1584_1917">
<rect width="32" height="32" fill="white" transform="translate(736 716)"/>
</clipPath>
</defs>
</svg>
